<?xml version="1.0" encoding="utf-8"?>
<svg xmlns="http://www.w3.org/2000/svg" width="209mm" height="297mm" viewBox="0 0 209 297" version="1.1" id="svg8" xmlns:bx="https://boxy-svg.com"><defs id="defs2"><linearGradient id="linearGradient15524"><stop style="stop-color:#000000;stop-opacity:1" offset="0" id="stop15520"/><stop style="stop-color:#eeffaa;stop-opacity:1" offset="1" id="stop15522"/></linearGradient><linearGradient id="linearGradient15516"><stop style="stop-color:#ff0000;stop-opacity:1;" offset="0" id="stop15512"/><stop style="stop-color:#ff00ff;stop-opacity:1" offset="1" id="stop15514"/></linearGradient><linearGradient id="linearGradient15508"><stop style="stop-color:#aaffaa;stop-opacity:1;" offset="0" id="stop15504"/><stop style="stop-color:#00ffff;stop-opacity:1" offset="1" id="stop15506"/></linearGradient><linearGradient id="linearGradient15464"><stop style="stop-color:#800000;stop-opacity:1;" offset="0" id="stop15460"/><stop style="stop-color:#3000ff;stop-opacity:1;" offset="1" id="stop15462"/></linearGradient><linearGradient id="linearGradient15456"><stop style="stop-color:#ff0000;stop-opacity:1;" offset="0" id="stop15452"/><stop style="stop-color:#aaffaa;stop-opacity:1" offset="1" id="stop15454"/></linearGradient><linearGradient id="linearGradient15458" x1="91.844009" y1="263.65115" x2="93.614967" y2="256.50266" gradientUnits="userSpaceOnUse" gradientTransform="matrix(0.474619, -0.833256, 1.100364, 1.107592, -240.069934, 45.016567)" href="#linearGradient15456"/><linearGradient id="linearGradient15466" x1="85.154434" y1="256.54187" x2="89.551529" y2="263.20383" gradientUnits="userSpaceOnUse" gradientTransform="matrix(0.9057157,0,0,0.9057157,8.5452344,24.038796)" href="#linearGradient15464"/><linearGradient id="linearGradient4550" gradientUnits="userSpaceOnUse" x1="359.57126" y1="793.30902" x2="440.46692" y2="944.2522" href="#linearGradient15516"/><linearGradient id="linearGradient4552" gradientUnits="userSpaceOnUse" x1="258.89581" y1="904.10284" x2="329.00745" y2="781.85693" href="#linearGradient15508"/><linearGradient id="linearGradient4554" gradientUnits="userSpaceOnUse" x1="100.84374" y1="243.80849" x2="81.605797" y2="203.24928" href="#linearGradient15524"/><bx:export><bx:file format="svg" units="mm"/></bx:export></defs><g id="layer1"><g id="g15478" transform="matrix(8.5832609,0,0,8.5832609,-654.01165,-2001.6674)" style="stroke-width:0.696472"><path id="path15226" d="m 90.09656,252.48163 c -0.19759,0.002 -0.394855,0.0163 -0.590491,0.0441 h -1.51e-4 c -2.006719,0.27056 -3.696744,1.82886 -3.834978,3.86706 -0.02425,0.18106 -0.03142,0.36508 -0.0333,0.54774 0.0016,0.19511 0.01608,0.3899 0.04323,0.58311 0.27156,1.58804 1.635304,2.73191 3.237069,2.70722 0.198739,-5.7e-4 0.397019,-0.0191 0.592408,-0.0555 -1.564568,-0.28329 -2.702734,-1.64484 -2.704123,-3.23485 6.84e-4,-1.58807 1.135534,-2.94906 2.69763,-3.23514 -0.355622,-0.0451 0,0 0,0 h 1.52e-4 c 0,0 0.393769,-0.0548 0.592552,-0.0553 1.538458,5.7e-4 2.955088,1.14054 3.23722,2.70722 -0.04673,-0.24763 -0.03221,-0.202 0,0 0.03501,0.19245 0.05279,0.38764 0.05311,0.58325 -0.0049,0.24215 -0.03208,0.45017 -0.06802,0.66324 -0.296282,1.95764 -1.847994,3.48543 -3.81,3.75127 0.06638,0.009 -0.744689,0.0324 -0.677981,0.0388 0.128951,0.0125 1.136058,0.004 1.265666,0.005 2.462545,2e-5 4.458857,-1.99622 4.458922,-4.45877 1.2e-5,-2.4626 -1.996323,-4.45893 -4.458922,-4.45891 z" style="opacity:1;fill:url(#linearGradient15458);fill-opacity:1;stroke:none;stroke-width:0.0129259;stroke-linecap:round;stroke-linejoin:round;stroke-miterlimit:4;stroke-dasharray:none;stroke-dashoffset:0;stroke-opacity:1;paint-order:stroke fill markers"/><path id="path15400" d="m 88.782692,252.47881 c -0.01164,-3e-5 -0.0232,3.8e-4 -0.03482,4.5e-4 h -0.03438 l 1.51e-4,6.1e-4 c -2.795452,0.0418 -4.989026,3.11551 -4.055669,5.7783 0.689771,2.51688 3.806232,3.88714 6.130054,2.72345 2.016888,-0.88678 3.268527,-3.53643 2.227689,-5.55654 -0.629586,-1.25981 -2.130222,-1.99768 -3.511804,-1.71967 2.138754,0.30273 3.41019,2.95782 2.300577,4.81244 -0.902216,1.79107 -3.516849,2.28489 -5.006176,0.93856 -1.462291,-1.16079 -1.436548,-3.37212 -0.494435,-4.84373 0.552848,-0.91252 1.449843,-1.60219 2.464651,-1.92255 0.419734,-0.15247 0.875669,-0.17421 1.328086,-0.20864 l -1.285002,-0.002 c -0.0096,-8e-5 -0.0193,-5.4e-4 -0.02892,-6.1e-4 z" style="opacity:1;fill:url(#linearGradient15466);fill-opacity:1;stroke:none;stroke-width:0.0129259;stroke-linecap:round;stroke-linejoin:round;stroke-miterlimit:4;stroke-dasharray:none;stroke-dashoffset:0;stroke-opacity:1;paint-order:stroke fill markers"/></g><g transform="matrix(-0.65983878,-0.17877942,0,0.65983878,189.10044,-55.150062)" id="g15938"/><g transform="matrix(1.5975447,0,0,1.5975447,-30.77576,-239.5709)" id="g4548" style="stroke-width:0.45838"><path style="opacity:1;fill:url(#linearGradient4550);fill-opacity:1;fill-rule:evenodd;stroke:none;stroke-width:0.45838px;stroke-linecap:butt;stroke-linejoin:miter;stroke-opacity:1" d="m 328.80469,760.18555 74.3457,128.93414 h -0.44141 -102.53174 l -11.29729,19.86597 148.72161,0.11394 -85.75586,-148.53125 z" transform="scale(0.26458333)" id="path4542"/><path style="opacity:1;fill:url(#linearGradient4552);fill-opacity:1;fill-rule:evenodd;stroke:none;stroke-width:0.45838px;stroke-linecap:butt;stroke-linejoin:miter;stroke-opacity:1" d="m 328.80469,760.18555 -85.75391,148.53106 0.002,0.002 11.1875,20.14453 74.34375,-128.76953 51.74605,89.02608 h 22.82031 z" transform="scale(0.26458333)" id="path4544"/><path id="path4546" d="m 67.26774,245.7617 c 0,0 30.208846,-1.3e-4 45.37834,-1.2e-4 l 1.9e-4,-7.3e-4 3.13582,-5.22841 -39.349271,-0.03 13.523975,-23.58207 -3.018937,-5.22895 z" style="opacity:1;fill:url(#linearGradient4554);fill-opacity:1;fill-rule:evenodd;stroke:none;stroke-width:0.121279px;stroke-linecap:butt;stroke-linejoin:miter;stroke-opacity:1"/></g></g></svg>