<?xml version='1.0' encoding='utf-8'?>
<svg xmlns="http://www.w3.org/2000/svg" width="2578.4" height="3010" version="1.1" viewBox="0 0 682.21 796.4"> <g transform="matrix(1.0033 0 0 1.0033 1.3874e-6 0)" stroke-linejoin="round"> <path d="m0.25141 0h679.44v793.75h-679.44z" fill="#fff" fill-rule="evenodd" stroke-width=".52999"/> <g fill="none" stroke-width=".26458"> <path class="UnoptimicedTransforms" transform="matrix(1.3375 0 0 1.3375 .25204 249.62)" d="m0 81.694s10.652 117.55 52.706 114.9c15.353-0.96613 15.396-19.526 15.037-39.572s-1.1194-41.576 12.625-48.485c41.971-21.095 95.2 44.023 133.09 46.327 64.396 3.9149 65.795-90.312 135.98-105.32 27.76-5.9359 46.678 24.12 65.601 54.204 18.923 30.084 37.852 60.195 65.636 54.37 19.827-4.157 27.323-54.287 27.323-54.287m-508-21.21s10.868 116.18 52.733 113.61c15.33-0.93118 15.543-19.253 15.312-39.086-0.14738-19.861-0.74601-41.284 12.96-48.296 41.71-21.212 94.467 42.586 132.31 44.786 64.205 3.7579 66.105-88.665 135.96-103.09 27.687-5.6634 46.653 24.155 65.653 53.83 18.859 29.687 37.751 59.31 65.375 53.423 19.959-4.3762 27.701-54.258 27.701-54.258m-508-19.997s11.084 114.82 52.76 112.33c15.307-0.89622 15.689-18.98 15.586-38.6 0.06396-19.677-0.37259-40.991 13.295-48.108 41.45-21.329 93.734 41.148 131.52 43.245 64.014 3.6009 66.415-87.017 135.94-100.86 27.614-5.391 46.629 24.19 65.704 53.456 18.795 29.291 37.65 58.426 65.113 52.476 20.092-4.5955 28.079-54.23 28.079-54.23m-508-18.784s11.3 113.45 52.787 111.04c15.285-0.86127 15.836-18.707 15.86-38.115 0.2753-19.493 8.22e-4 -40.698 13.629-47.92 41.189-21.446 93.001 39.711 130.74 41.705 63.824 3.4439 66.726-85.37 135.92-98.624 27.541-5.1185 46.604 24.225 65.756 53.082 18.731 28.894 37.548 57.541 64.852 51.529 20.224-4.8147 28.457-54.201 28.457-54.201m-508-17.571s11.516 112.09 52.814 109.76c15.262-0.82632 15.982-18.434 16.134-37.629 0.48663-19.308 0.37424-40.406 13.964-47.732 40.928-21.563 92.268 38.273 129.96 40.164 63.633 3.2869 67.036-83.722 135.9-96.392 27.468-4.8461 46.58 24.26 65.808 52.708 18.667 28.498 37.447 56.656 64.59 50.582 20.356-5.0339 28.835-54.173 28.835-54.173m-508-16.358s11.732 110.72 52.841 108.47c15.239-0.79137 16.129-18.16 16.408-37.144 0.69797-19.124 0.74765-40.113 14.299-47.544 40.667-21.68 91.535 36.836 129.18 38.624 63.443 3.1299 67.346-82.075 135.87-94.16 27.396-4.5736 46.556 24.296 65.859 52.334 18.603 28.101 37.345 55.771 64.329 49.635 20.488-5.2531 29.214-54.144 29.214-54.144m-508-15.145s11.948 109.36 52.868 107.18c15.217-0.75641 16.275-17.887 16.683-36.658 0.90931-18.94 1.1211-39.82 14.633-47.356 40.406-21.797 90.802 35.398 128.39 37.083 63.252 2.9728 67.656-80.428 135.85-91.928 27.322-4.3012 46.531 24.331 65.911 51.96 18.539 27.705 37.244 54.886 64.067 48.688 20.621-5.4723 29.592-54.116 29.592-54.116m-508-13.932s12.164 107.99 52.895 105.9c15.194-0.72145 16.422-17.614 16.957-36.173 1.1206-18.755 1.4945-39.527 14.968-47.168 40.146-21.915 90.069 33.961 127.61 35.542 63.062 2.8158 67.966-78.78 135.83-89.696 27.25-4.0287 46.507 24.366 65.962 51.586 18.475 27.308 37.142 54.001 63.805 47.741 20.753-5.6916 29.97-54.087 29.97-54.087m-508-12.719s12.38 106.63 52.921 104.61c15.171-0.6865 16.568-17.341 17.231-35.687 1.332-18.571 1.8679-39.235 15.303-46.98 39.885-22.032 89.336 32.523 126.83 34.002 62.871 2.6588 68.277-77.133 135.81-87.464 27.177-3.7562 46.482 24.401 66.014 51.212 18.411 26.912 37.041 53.117 63.544 46.794 20.885-5.9108 30.348-54.059 30.348-54.059m-508-11.506s12.596 105.26 52.948 103.33c15.149-0.65155 16.715-17.068 17.505-35.202 1.5433-18.387 2.2413-38.942 15.637-46.792 39.624-22.149 88.604 31.086 126.05 32.461 62.68 2.5018 68.587-75.485 135.79-85.232 27.104-3.4838 46.458 24.436 66.066 50.838 18.347 26.515 36.939 52.232 63.282 45.847 21.017-6.13 30.726-54.03 30.726-54.03m-508-10.293s12.812 103.9 52.975 102.04c15.126-0.61659 16.862-16.795 17.779-34.716 1.7547-18.202 2.6147-38.649 15.972-46.604 39.363-22.266 87.871 29.649 125.26 30.921 62.49 2.3448 68.897-73.838 135.77-83 27.031-3.2113 46.433 24.471 66.117 50.464 18.283 26.119 36.838 51.347 63.021 44.9 21.15-6.3492 31.104-54.002 31.104-54.002m-508-9.0796s13.028 102.53 53.002 100.76c15.103-0.58164 17.008-16.521 18.054-34.23 1.966-18.018 2.9881-38.356 16.307-46.415 39.102-22.383 87.138 28.211 124.48 29.38 62.299 2.1878 69.207-72.191 135.75-80.768 26.958-2.9389 46.409 24.506 66.169 50.09 18.219 25.722 36.736 50.462 62.759 43.953 21.282-6.5684 31.483-53.973 31.483-53.973m-508-7.8665s13.244 101.17 53.029 99.47c15.081-0.54669 17.155-16.248 18.328-33.745 2.1773-17.834 3.3615-38.064 16.641-46.227 38.842-22.5 86.405 26.774 123.7 27.84 62.109 2.0308 69.517-70.543 135.72-78.536 26.885-2.6664 46.384 24.541 66.22 49.716 18.155 25.326 36.635 49.577 62.498 43.006 21.414-6.7876 31.861-53.945 31.861-53.945m-508-6.6534s13.46 99.805 53.056 98.185c15.058-0.51174 17.301-15.975 18.602-33.259 2.3887-17.649 3.735-37.771 16.976-46.039 38.581-22.617 85.672 25.336 122.92 26.299 61.918 1.8738 69.828-68.896 135.7-76.303 26.812-2.394 46.36 24.576 66.272 49.342 18.091 24.929 36.533 48.692 62.236 42.059 21.546-7.0068 32.239-53.916 32.239-53.916m-508-5.4403s13.676 98.44 53.083 96.899c15.035-0.47678 17.448-15.702 18.876-32.774 2.6-17.465 4.1084-37.478 17.311-45.851 38.32-22.735 84.939 23.899 122.13 24.758 61.727 1.7168 70.138-67.248 135.68-74.071 26.739-2.1215 46.335 24.611 66.323 48.968 18.027 24.533 36.432 47.808 61.975 41.112 21.678-7.226 32.617-53.888 32.617-53.888m-508-4.2273s13.892 97.076 53.11 95.613c15.013-0.44183 17.594-15.429 19.15-32.288 2.8113-17.281 4.4818-37.185 17.645-45.663 38.059-22.852 84.206 22.461 121.35 23.218 61.537 1.5597 70.448-65.601 135.66-71.839 26.666-1.8491 46.311 24.646 66.375 48.594 17.963 24.136 36.33 46.923 61.713 40.165 21.811-7.4453 32.995-53.859 32.995-53.859m-508-3.0142s14.108 95.711 53.137 94.328c14.99-0.40688 17.741-15.156 19.425-31.803 3.0227-17.096 4.8552-36.893 17.98-45.475 37.798-22.969 83.473 21.024 120.57 21.677 61.346 1.4027 70.758-63.954 135.64-69.607 26.593-1.5766 46.286 24.681 66.427 48.22 17.898 23.74 36.229 46.038 61.451 39.218 21.943-7.6645 33.373-53.831 33.373-53.831m-508-1.8011s14.324 94.346 53.164 93.042c14.967-0.37193 17.887-14.882 19.699-31.317 3.234-16.912 5.2286-36.6 18.315-45.287 37.538-23.086 82.74 19.586 119.79 20.137 61.156 1.2457 71.068-62.306 135.62-67.375 26.52-1.3042 46.262 24.716 66.478 47.846 17.834 23.343 36.128 45.153 61.19 38.271 22.075-7.8837 33.752-53.802 33.752-53.802m-508-0.58806s14.54 92.982 53.191 91.756c14.944-0.33697 18.034-14.609 19.973-30.831 3.4453-16.728 5.602-36.307 18.649-45.099 37.277-23.203 82.007 18.149 119 18.596 60.965 1.0887 71.378-60.659 135.6-65.143 26.447-1.0317 46.237 24.751 66.53 47.472 17.77 22.947 36.026 44.268 60.928 37.324 22.207-8.1029 34.13-53.774 34.13-53.774m-508 0.62501s14.756 91.617 53.218 90.471c14.922-0.30202 18.18-14.336 20.247-30.346 3.6567-16.543 5.9754-36.014 18.984-44.911 37.016-23.32 81.274 16.711 118.22 17.055 60.774 0.93169 71.689-59.011 135.57-62.911 26.374-0.75925 46.213 24.786 66.581 47.098 17.706 22.55 35.925 43.383 60.667 36.377 22.34-8.3221 34.508-53.745 34.508-53.745m-508 1.8381s14.972 90.252 53.245 89.185c14.899-0.26707 18.327-14.063 20.521-29.86 3.868-16.359 6.3489-35.722 19.319-44.723 36.755-23.438 80.541 15.274 117.44 15.515 60.584 0.77467 71.999-57.364 135.55-60.679 26.301-0.48679 46.188 24.821 66.633 46.724 17.642 22.154 35.823 42.499 60.405 35.43 22.472-8.5414 34.886-53.717 34.886-53.717m-508 3.0512s15.188 88.888 53.272 87.899c14.876-0.23211 18.474-13.79 20.796-29.375 4.0794-16.175 6.7223-35.429 19.653-44.534 36.494-23.555 79.808 13.837 116.66 13.974 60.393 0.61766 72.309-55.716 135.53-58.447 26.228-0.21434 46.164 24.856 66.685 46.35 17.578 21.757 35.722 41.614 60.144 34.483 22.604-8.7606 35.264-53.688 35.264-53.688m-508 4.2642s15.404 87.523 53.299 86.614c14.854-0.19715 18.62-13.517 21.07-28.889 4.2907-15.99 7.0957-35.136 19.988-44.346 36.234-23.672 79.075 12.399 115.87 12.434 60.203 0.46064 72.619-54.069 135.51-56.215 26.155 0.05812 46.139 24.891 66.736 45.976 17.514 21.361 35.62 40.729 59.882 33.536 22.736-8.9798 35.642-53.66 35.642-53.66m-508 5.4773s15.62 86.158 53.326 85.328c14.831-0.1622 18.767-13.244 21.344-28.404 4.502-15.806 7.4691-34.843 20.323-44.158 35.973-23.789 78.343 10.962 115.09 10.893 60.012 0.30364 72.929-52.422 135.49-53.983 26.082 0.33057 46.115 24.926 66.788 45.602 17.45 20.964 35.519 39.844 59.621 32.589 22.868-9.199 36.021-53.631 36.021-53.631m-508 6.6904s15.836 84.794 53.353 84.042c14.808-0.12725 18.913-12.97 21.618-27.918 4.7134-15.622 7.8425-34.551 20.658-43.97 35.712-23.906 77.61 9.5242 114.31 9.3525 59.821 0.14662 73.24-50.774 135.47-51.751 26.009 0.60302 46.091 24.962 66.839 45.228 17.386 20.568 35.417 38.959 59.359 31.642 23.001-9.4182 36.399-53.603 36.399-53.603m-508 7.9034s16.052 83.429 53.38 82.756c14.786-0.0923 19.06-12.697 21.892-27.432 4.9247-15.437 8.2159-34.258 20.992-43.782 35.451-24.023 76.877 8.0868 113.53 7.8119 59.631-0.0104 73.55-49.127 135.45-49.519 25.936 0.87548 46.066 24.997 66.891 44.854 17.322 20.171 35.316 38.074 59.097 30.695 23.133-9.6374 36.777-53.574 36.777-53.574m-508 9.1165s16.267 82.065 53.407 81.471c14.763-0.0573 19.206-12.424 22.166-26.947 5.136-15.253 8.5893-33.965 21.327-43.594 35.19-24.14 76.144 6.6493 112.74 6.2713 59.44-0.16741 73.86-47.479 135.42-47.287 25.863 1.1479 46.042 25.032 66.943 44.48 17.258 19.775 35.214 37.19 58.836 29.748 23.265-9.8566 37.155-53.546 37.155-53.546m-508 10.33s16.483 80.7 53.434 80.185c14.74-0.0224 19.353-12.151 22.441-26.461 5.3474-15.069 8.9628-33.672 21.662-43.406 34.93-24.258 75.411 5.2119 111.96 4.7308 59.25-0.32441 74.17-45.832 135.4-45.055 25.79 1.4204 46.017 25.067 66.994 44.106 17.194 19.378 35.113 36.305 58.574 28.801 23.397-10.076 37.533-53.517 37.533-53.517m-508 11.543s16.699 79.335 53.461 78.899c14.718 0.0126 19.499-11.878 22.715-25.976 5.5587-14.884 9.3362-33.38 21.996-43.218 34.669-24.375 74.678 3.7744 111.18 3.1902 59.059-0.48143 74.48-44.185 135.38-42.823 25.717 1.6928 45.993 25.102 67.046 43.732 17.13 18.982 35.011 35.42 58.313 27.854 23.53-10.295 37.911-53.489 37.911-53.489m-508 12.756s16.915 77.971 53.488 77.614c14.695 0.0475 19.646-11.605 22.989-25.49 5.7701-14.7 9.7096-33.087 22.331-43.03 34.408-24.492 73.945 2.337 110.39 1.6496 58.868-0.63844 74.791-42.537 135.36-40.591 25.644 1.9653 45.968 25.137 67.097 43.359 17.066 18.585 34.91 34.535 58.051 26.907 23.662-10.514 38.29-53.46 38.29-53.46m-508 13.969s17.131 76.606 53.515 76.328c14.672 0.0825 19.792-11.331 23.263-25.005 5.9814-14.516 10.083-32.794 22.666-42.841 34.147-24.609 73.212 0.89952 109.61 0.10899 58.678-0.79546 75.101-40.89 135.34-38.359 25.571 2.2377 45.944 25.172 67.149 42.985 17.002 18.189 34.809 33.65 57.79 25.96 23.794-10.733 38.668-53.432 38.668-53.432m-508 15.182s17.347 75.241 53.541 75.042c14.65 0.11742 19.939-11.058 23.537-24.519 6.1927-14.332 10.456-32.501 23-42.653 33.886-24.726 72.479-0.53793 108.83-1.4316 58.487-0.95246 75.411-39.242 135.32-36.127 25.498 2.5102 45.919 25.207 67.2 42.611 16.938 17.792 34.707 32.765 57.528 25.013 23.926-10.953 39.046-53.403 39.046-53.403m-508 16.395s17.563 73.877 53.568 73.757c14.627 0.15237 20.085-10.785 23.812-24.033 6.4041-14.147 10.83-32.209 23.335-42.465 33.626-24.843 71.746-1.9754 108.05-2.9722 58.297-1.1095 75.721-37.595 135.3-33.895 25.425 2.7827 45.895 25.242 67.252 42.237 16.874 17.396 34.606 31.881 57.267 24.066 24.058-11.172 39.424-53.375 39.424-53.375m-508 17.608s17.779 72.512 53.595 72.471c14.604 0.18733 20.232-10.512 24.086-23.548 6.6154-13.963 11.203-31.916 23.67-42.277 33.365-24.961 71.013-3.4128 107.26-4.5128 58.106-1.2665 76.031-35.947 135.27-31.663 25.352 3.0551 45.87 25.277 67.304 41.863 16.81 16.999 34.504 30.996 57.005 23.119 24.191-11.391 39.802-53.346 39.802-53.346m-508 18.821s17.995 71.147 53.622 71.185c14.581 0.22228 20.379-10.239 24.36-23.062 6.8267-13.779 11.577-31.623 24.004-42.089 33.104-25.078 70.28-4.8503 106.48-6.0534 57.916-1.4235 76.342-34.3 135.25-29.431 25.279 3.3276 45.846 25.312 67.355 41.489 16.746 16.603 34.403 30.111 56.743 22.172 24.323-11.61 40.18-53.317 40.18-53.317m-508 20.034s18.211 69.783 53.649 69.9c14.559 0.25724 20.525-9.9656 24.634-22.577 7.0381-13.594 11.95-31.33 24.339-41.901 32.843-25.195 69.547-6.2877 105.7-7.5939 57.725-1.5805 76.652-32.653 135.23-27.199 25.206 3.6 45.821 25.347 67.407 41.115 16.682 16.206 34.301 29.226 56.482 21.225 24.455-11.83 40.559-53.289 40.559-53.289m-508 21.247s18.427 68.418 53.676 68.614c14.536 0.29219 20.672-9.6925 24.908-22.091 7.2494-13.41 12.323-31.038 24.674-41.713 32.582-25.312 68.815-7.7252 104.92-9.1345 57.534-1.7375 76.962-31.005 135.21-24.967 25.133 3.8725 45.797 25.382 67.458 40.741 16.617 15.81 34.2 28.341 56.22 20.278 24.587-12.049 40.937-53.26 40.937-53.26m-508 22.46s18.643 67.054 53.703 67.328c14.513 0.32715 20.818-9.4193 25.183-21.606 7.4607-13.226 12.697-30.745 25.008-41.525 32.322-25.429 68.082-9.1626 104.13-10.675 57.344-1.8946 77.272-29.358 135.19-22.735 25.06 4.1449 45.772 25.417 67.51 40.367 16.553 15.413 34.098 27.456 55.959 19.331 24.72-12.268 41.315-53.232 41.315-53.232m-508 23.673s18.859 65.689 53.73 66.042c14.491 0.3621 20.965-9.1462 25.457-21.12 7.6721-13.041 13.07-30.452 25.343-41.337 32.061-25.546 67.349-10.6 103.35-12.216 57.153-2.0516 77.582-27.71 135.17-20.503 24.987 4.4174 45.748 25.452 67.562 39.993 16.489 15.017 33.997 26.572 55.697 18.384 24.852-12.487 41.693-53.203 41.693-53.203m-508 24.886s19.075 64.324 53.757 64.757c14.468 0.39705 21.111-8.873 25.731-20.634 7.8834-12.857 13.444-30.159 25.678-41.149 31.8-25.663 66.616-12.038 102.57-13.756 56.963-2.2086 77.893-26.063 135.15-18.271 24.914 4.6898 45.723 25.487 67.613 39.619 16.425 14.62 33.895 25.687 55.436 17.436 24.984-12.706 42.071-53.175 42.071-53.175m-508 26.1s19.291 62.96 53.784 63.471c14.445 0.432 21.258-8.5998 26.005-20.149 8.0948-12.673 13.817-29.867 26.012-40.96 31.539-25.781 65.883-13.475 101.79-15.297 56.772-2.3656 78.203-24.416 135.12-16.039 24.841 4.9623 45.699 25.522 67.665 39.245 16.361 14.224 33.794 24.802 55.174 16.489 25.116-12.926 42.449-53.146 42.449-53.146m-508 27.313s19.507 61.595 53.811 62.185c14.423 0.46696 21.404-8.3267 26.279-19.663 8.3061-12.488 14.191-29.574 26.347-40.772 31.278-25.898 65.15-14.912 101-16.837 56.581-2.5226 78.513-22.768 135.1-13.807 24.768 5.2347 45.674 25.557 67.716 38.871 16.297 13.827 33.692 23.917 54.912 15.542 25.248-13.145 42.828-53.118 42.828-53.118m-508 28.526s19.723 60.23 53.838 60.9c14.4 0.50191 21.551-8.0535 26.554-19.178 8.5174-12.304 14.564-29.281 26.682-40.584 31.018-26.015 64.417-16.35 100.22-18.378 56.391-2.6796 78.823-21.121 135.08-11.575 24.695 5.5072 45.65 25.592 67.768 38.497 16.233 13.431 33.591 23.032 54.651 14.595 25.381-13.364 43.206-53.089 43.206-53.089m-508 29.739s19.939 58.866 53.865 59.614c14.377 0.53686 21.697-7.7804 26.828-18.692 8.7288-12.12 14.937-28.988 27.016-40.396 30.757-26.132 63.684-17.787 99.439-19.919 56.2-2.8366 79.133-19.473 135.06-9.343 24.622 5.7797 45.625 25.627 67.82 38.123 16.169 13.034 33.49 22.147 54.389 13.648 25.513-13.583 43.584-53.061 43.584-53.061m-508 30.952s20.155 57.501 53.892 58.328c14.355 0.57181 21.844-7.5072 27.102-18.207 8.9401-11.935 15.311-28.696 27.351-40.208 30.496-26.249 62.951-19.225 98.656-21.459 56.01-2.9936 79.444-17.826 135.04-7.111 24.549 6.0521 45.601 25.663 67.871 37.749 16.105 12.638 33.388 21.263 54.128 12.701 25.645-13.803 43.962-53.032 43.962-53.032m-508 32.165s20.371 56.136 53.919 57.043c14.332 0.60677 21.991-7.2341 27.376-17.721 9.1514-11.751 15.684-28.403 27.686-40.02 30.235-26.366 62.218-20.662 97.873-23 55.819-3.1506 79.754-16.179 135.02-4.879 24.476 6.3246 45.577 25.698 67.923 37.375 16.041 12.241 33.287 20.378 53.866 11.754 25.777-14.022 44.34-53.004 44.34-53.004m-508 33.378s20.587 54.772 53.946 55.757c14.309 0.64172 22.137-6.9609 27.65-17.235 9.3628-11.567 16.058-28.11 28.02-39.832 29.974-26.484 61.485-22.1 97.091-24.54 55.628-3.3077 80.064-14.531 135-2.647 24.403 6.597 45.552 25.733 67.974 37.001 15.977 11.845 33.185 19.493 53.605 10.807 25.91-14.241 44.718-52.975 44.718-52.975m-508 34.591s20.803 53.407 53.973 54.471c14.287 0.67667 22.284-6.6878 27.925-16.75 9.5741-11.382 16.431-27.818 28.355-39.644 29.714-26.601 60.752-23.537 96.308-26.081 55.438-3.4647 80.374-12.884 134.97-0.41495 24.33 6.8695 45.528 25.768 68.026 36.627 15.913 11.448 33.084 18.608 53.343 9.8604 26.042-14.46 45.097-52.947 45.097-52.947m-508 35.804s21.019 52.042 54 53.186c14.264 0.71162 22.43-6.4146 28.199-16.264 9.7855-11.198 16.804-27.525 28.69-39.456 29.453-26.718 60.019-24.975 95.526-27.622 55.247-3.6217 80.684-11.236 134.95 1.8171 24.257 7.1419 45.503 25.803 68.077 36.253 15.849 11.052 32.982 17.723 53.082 8.9134 26.174-14.679 45.475-52.918 45.475-52.918m-508 37.017s21.235 50.678 54.027 51.9c14.241 0.74659 22.577-6.1414 28.473-15.779 9.9968-11.014 17.178-27.232 29.024-39.268 29.192-26.835 59.287-26.412 94.743-29.162 55.057-3.7787 80.995-9.5889 134.93 4.0491 24.184 7.4144 45.479 25.838 68.129 35.879 15.785 10.655 32.881 16.838 52.82 7.9664 26.306-14.899 45.853-52.89 45.853-52.89m-508 38.23s21.451 49.313 54.054 50.614c14.219 0.78154 22.723-5.8683 28.747-15.293 10.208-10.829 17.551-26.939 29.359-39.079 28.931-26.952 58.554-27.85 93.96-30.703 54.866-3.9357 81.305-7.9415 134.91 6.2811 24.111 7.6868 45.454 25.873 68.181 35.505 15.721 10.259 32.779 15.954 52.558 7.0194 26.438-15.118 46.231-52.861 46.231-52.861m-508 39.443s21.667 47.949 54.081 49.328c14.196 0.81649 22.87-5.5951 29.021-14.808 10.419-10.645 17.925-26.647 29.694-38.891 28.67-27.069 57.821-29.287 93.178-32.243 54.675-4.0927 81.615-6.294 134.89 8.5131 24.038 7.9593 45.43 25.908 68.232 35.131 15.657 9.8621 32.678 15.069 52.297 6.0724 26.571-15.337 46.609-52.833 46.609-52.833m-508 40.656s21.883 46.584 54.108 48.043c14.173 0.85145 23.016-5.322 29.296-14.322 10.631-10.461 18.298-26.354 30.028-38.703 28.41-27.186 57.088-30.724 92.395-33.784 54.485-4.2497 81.925-4.6466 134.87 10.745 23.965 8.2318 45.405 25.943 68.284 34.757 15.593 9.4656 32.576 14.184 52.035 5.1253 26.703-15.556 46.988-52.804 46.988-52.804m-508 41.869s22.099 45.219 54.134 46.757c14.15 0.8864 23.163-5.0488 29.57-13.836 10.842-10.276 18.672-26.061 30.363-38.515 28.149-27.304 56.355-32.162 91.613-35.325 54.294-4.4067 82.235-2.9992 134.85 12.977 23.892 8.5042 45.381 25.978 68.335 34.383 15.529 9.0691 32.475 13.299 51.774 4.1783 26.835-15.775 47.366-52.776 47.366-52.776m-508 43.083s22.315 43.855 54.161 45.471c14.128 0.92135 23.309-4.7756 29.844-13.351 11.053-10.092 19.045-25.768 30.698-38.327 27.888-27.421 55.622-33.599 90.83-36.865 54.104-4.5638 82.546-1.3518 134.82 15.209 23.819 8.7766 45.356 26.013 68.387 34.009 15.465 8.6726 32.373 12.414 51.512 3.2313 26.967-15.995 47.744-52.747 47.744-52.747m-508 44.296s22.531 42.49 54.188 44.186c14.105 0.9563 23.456-4.5025 30.118-12.865 11.265-9.9078 19.418-25.476 31.032-38.139 27.627-27.538 54.889-35.037 90.048-38.406 53.913-4.7208 82.856 0.2956 134.8 17.441 23.746 9.0491 45.332 26.048 68.439 33.635 15.401 8.2761 32.272 11.529 51.251 2.2843 27.1-16.214 48.122-52.719 48.122-52.719m-508 45.509s22.747 41.125 54.215 42.9c14.082 0.99126 23.603-4.2293 30.392-12.38 11.476-9.7235 19.792-25.183 31.367-37.951 27.366-27.655 54.156-36.474 89.265-39.946 53.722-4.8778 83.166 1.943 134.78 19.673 23.673 9.3216 45.307 26.083 68.49 33.261 15.336 7.8796 32.17 10.645 50.989 1.3373 27.232-16.433 48.5-52.69 48.5-52.69m-508 46.722s22.963 39.761 54.242 41.614c14.06 1.0262 23.749-3.9562 30.667-11.894 11.687-9.5392 20.165-24.89 31.702-37.763 27.106-27.772 53.423-37.912 88.482-41.487 53.532-5.0348 83.476 3.5904 134.76 21.905 23.6 9.594 45.283 26.118 68.542 32.887 15.272 7.4831 32.069 9.7598 50.728 0.39028 27.364-16.652 48.878-52.662 48.878-52.662m-508 47.935s23.179 38.396 54.269 40.329c14.037 1.0612 23.896-3.683 30.941-11.409 11.899-9.3549 20.539-24.597 32.036-37.575 26.845-27.889 52.69-39.349 87.7-43.027 53.341-5.1918 83.786 5.2378 134.74 24.137 23.527 9.8665 45.258 26.153 68.593 32.513 15.208 7.0866 31.968 8.875 50.466-0.55674 27.496-16.872 49.257-52.633 49.257-52.633m-508 49.148s23.395 37.031 54.296 39.043c14.014 1.0961 24.042-3.4099 31.215-10.923 12.11-9.1705 20.912-24.305 32.371-37.387 26.584-28.006 51.957-40.787 86.917-44.568 53.151-5.3488 84.097 6.8853 134.72 26.369 23.454 10.139 45.234 26.188 68.645 32.139 15.144 6.6901 31.866 7.9902 50.204-1.5038 27.629-17.091 49.635-52.605 49.635-52.605m-508 50.361s23.611 35.667 54.323 37.757c13.992 1.1311 24.189-3.1367 31.489-10.437 12.321-8.9862 21.285-24.012 32.706-37.198 26.323-28.124 51.224-42.224 86.135-46.109 52.96-5.5058 84.407 8.5327 134.7 28.601 23.381 10.411 45.209 26.223 68.697 31.765 15.08 6.2936 31.765 7.1053 49.943-2.4508 27.761-17.31 50.013-52.576 50.013-52.576m-508 51.574s23.827 34.302 54.35 36.472c13.969 1.166 24.335-2.8636 31.763-9.9518 12.533-8.8019 21.659-23.719 33.04-37.01 26.062-28.241 50.491-43.661 85.352-47.649 52.77-5.6629 84.717 10.18 134.67 30.833 23.308 10.684 45.185 26.258 68.748 31.391 15.016 5.8971 31.663 6.2205 49.681-3.3978 27.893-17.529 50.391-52.548 50.391-52.548m-508 52.787s24.043 32.938 54.377 35.186c13.946 1.201 24.482-2.5904 32.038-9.4663 12.744-8.6176 22.032-23.426 33.375-36.822 25.802-28.358 49.759-45.099 84.569-49.19 52.579-5.8199 85.027 11.828 134.65 33.065 23.235 10.956 45.16 26.293 68.8 31.017 14.952 5.5006 31.562 5.3357 49.42-4.3448 28.025-17.748 50.769-52.519 50.769-52.519m-508 54s24.259 31.573 54.404 33.9c13.924 1.2359 24.628-2.3172 32.312-8.9807 12.956-8.4333 22.406-23.134 33.71-36.634 25.541-28.475 49.026-46.536 83.787-50.73 52.388-5.9769 85.337 13.475 134.63 35.297 23.162 11.229 45.136 26.329 68.851 30.643 14.888 5.104 31.46 4.4508 49.158-5.2918 28.157-17.968 51.147-52.491 51.147-52.491m-508 55.213s24.474 30.208 54.431 32.614c13.901 1.2709 24.775-2.0441 32.586-8.4951 13.167-8.2489 22.779-22.841 34.044-36.446 25.28-28.592 48.293-47.974 83.004-52.271 52.198-6.1339 85.648 15.122 134.61 37.529 23.089 11.501 45.112 26.364 68.903 30.269 14.824 4.7076 31.359 3.566 48.897-6.2388 28.29-18.187 51.526-52.462 51.526-52.462m-508 56.426s24.69 28.844 54.458 31.329c13.878 1.3058 24.921-1.7709 32.86-8.0096 13.378-8.0646 23.152-22.548 34.379-36.258 25.019-28.709 47.56-49.411 82.222-53.812 52.007-6.2909 85.958 16.77 134.59 39.761 23.016 11.774 45.087 26.399 68.954 29.895 14.76 4.311 31.257 2.6812 48.635-7.1858 28.422-18.406 51.904-52.434 51.904-52.434m-508 57.639s24.906 27.479 54.485 30.043c13.856 1.3408 25.068-1.4978 33.134-7.524 13.59-7.8803 23.526-22.255 34.714-36.07 24.758-28.827 46.827-50.849 81.439-55.352 51.817-6.4479 86.268 18.417 134.57 41.993 22.943 12.046 45.063 26.434 69.006 29.521 14.696 3.9145 31.156 1.7963 48.374-8.1328 28.554-18.625 52.282-52.405 52.282-52.405m-508 58.852s25.122 26.114 54.512 28.757c13.833 1.3757 25.215-1.2246 33.409-7.0384 13.801-7.696 23.899-21.963 35.048-35.882 24.498-28.944 46.094-52.286 80.656-56.893 51.626-6.6049 86.578 20.065 134.55 44.225 22.87 12.319 45.038 26.469 69.058 29.147 14.632 3.518 31.054 0.9115 48.112-9.0799 28.686-18.844 52.66-52.376 52.66-52.376m-508 60.066s25.338 24.75 54.539 27.472c13.81 1.4107 25.361-0.95145 33.683-6.5528 14.012-7.5116 24.273-21.67 35.383-35.694 24.237-29.061 45.361-53.724 79.874-58.433 51.435-6.7619 86.888 21.712 134.52 46.457 22.797 12.591 45.014 26.504 69.109 28.773 14.568 3.1215 30.953 0.0267 47.85-10.027 28.819-19.064 53.038-52.348 53.038-52.348m-508 61.279s25.554 23.385 54.566 26.186c13.787 1.4456 25.508-0.67829 33.957-6.0673 14.224-7.3273 24.646-21.377 35.718-35.505 23.976-29.178 44.628-55.161 79.091-59.974 51.245-6.919 87.199 23.359 134.5 48.689 22.724 12.863 44.989 26.539 69.161 28.399 14.504 2.725 30.851-0.85816 47.589-10.974 28.951-19.283 53.416-52.319 53.416-52.319m-508 62.492s25.77 22.02 54.593 24.9c13.765 1.4806 25.654-0.40513 34.231-5.5817 14.435-7.143 25.02-21.084 36.052-35.317 23.715-29.295 43.895-56.599 78.309-61.514 51.054-7.076 87.509 25.007 134.48 50.921 22.651 13.136 44.965 26.574 69.212 28.025 14.44 2.3285 30.75-1.743 47.327-11.921 29.083-19.502 53.795-52.291 53.795-52.291m-508 63.705s25.986 20.656 54.62 23.615c13.742 1.5156 25.801-0.13198 34.505-5.0961 14.646-6.9587 25.393-20.792 36.387-35.129 23.454-29.412 43.162-58.036 77.526-63.055 50.864-7.233 87.819 26.654 134.46 53.153 22.578 13.408 44.94 26.609 69.264 27.651 14.376 1.932 30.649-2.6278 47.066-12.868 29.215-19.721 54.173-52.262 54.173-52.262m-508 64.918s26.202 19.291 54.647 22.329c13.719 1.5505 25.947 0.14118 34.779-4.6106 14.858-6.7744 25.766-20.499 36.722-34.941 23.194-29.529 42.429-59.473 76.743-64.596 50.673-7.39 88.129 28.302 134.44 55.385 22.505 13.681 44.916 26.644 69.316 27.277 14.312 1.5355 30.547-3.5127 46.804-13.815 29.347-19.941 54.551-52.234 54.551-52.234m-508 66.131s26.418 17.927 54.674 21.043c13.697 1.5855 26.094 0.41434 35.054-4.125 15.069-6.59 26.14-20.206 37.056-34.753 22.933-29.647 41.696-60.911 75.961-66.136 50.482-7.547 88.439 29.949 134.42 57.617 22.432 13.953 44.891 26.679 69.367 26.903 14.248 1.139 30.446-4.3975 46.543-14.762 29.48-20.16 54.929-52.205 54.929-52.205m-508 67.344s26.634 16.562 54.701 19.758c13.674 1.6204 26.24 0.68749 35.328-3.6394 15.28-6.4057 26.513-19.913 37.391-34.565 22.672-29.764 40.963-62.348 75.178-67.677 50.292-7.704 88.75 31.596 134.4 59.849 22.359 14.226 44.867 26.714 69.419 26.529 14.184 0.74252 30.344-5.2823 46.281-15.709 29.612-20.379 55.307-52.177 55.307-52.177m-508 68.557s26.85 15.197 54.728 18.472c13.651 1.6554 26.387 0.96065 35.602-3.1539 15.492-6.2214 26.887-19.621 37.726-34.377 22.411-29.881 40.23-63.786 74.396-69.217 50.101-7.861 89.06 33.244 134.37 62.081 22.286 14.498 44.842 26.749 69.47 26.155 14.12 0.34601 30.243-6.1672 46.02-16.656 29.744-20.598 55.685-52.148 55.685-52.148m-508 69.77s27.066 13.833 54.754 17.186c13.629 1.6903 26.533 1.2338 35.876-2.6683 15.703-6.0371 27.26-19.328 38.06-34.189 22.15-29.998 39.498-65.223 73.613-70.758 49.911-8.018 89.37 34.891 134.35 64.314 22.213 14.771 44.818 26.784 69.522 25.781 14.055-0.0505 30.141-7.052 45.758-17.603 29.876-20.817 56.064-52.12 56.064-52.12m-508 70.983s27.282 12.468 54.781 15.9c13.606 1.7253 26.68 1.507 36.15-2.1827 15.914-5.8528 27.633-19.035 38.395-34.001 21.89-30.115 38.765-66.661 72.83-72.299 49.72-8.1751 89.68 36.539 134.33 66.546 22.14 15.043 44.793 26.819 69.574 25.407 13.991-0.447 30.04-7.9368 45.496-18.55 30.009-21.037 56.442-52.091 56.442-52.091m-508 72.196s27.498 11.103 54.808 14.615c13.583 1.7602 26.826 1.7801 36.425-1.6971 16.126-5.6684 28.007-18.742 38.73-33.813 21.629-30.232 38.032-68.098 72.048-73.839 49.529-8.3321 89.99 38.186 134.31 68.778 22.067 15.316 44.769 26.854 69.625 25.033 13.927-0.8435 29.938-8.8216 45.235-19.497 30.141-21.256 56.82-52.063 56.82-52.063m-508 73.409s27.714 9.7387 54.835 13.329c13.561 1.7952 26.973 2.0533 36.699-1.2116 16.337-5.4841 28.38-18.45 39.064-33.624 21.368-30.35 37.299-69.536 71.265-75.38 49.339-8.4891 90.301 39.834 134.29 71.01 21.994 15.588 44.744 26.889 69.677 24.659 13.863-1.24 29.837-9.7065 44.973-20.444 30.273-21.475 57.198-52.034 57.198-52.034" stroke="#59f"/> <path class="UnoptimicedTransforms" transform="matrix(1.3375 0 0 1.3375 .12451 -47.58)" d="m0 81.694s86.553 81.733 140.72 81.299c11.531-0.0924 21.872-5.0555 31.606-12.33 29.204-21.825 52.961-64.456 87.092-58.805 25.181 4.169 37.22 34.588 49.317 63.363 12.097 28.775 24.251 55.904 49.66 53.494 46.99-4.4571 40.546-90.341 60.733-136.29 6.729-15.318 16.417-26.199 32.029-28.148 27.231-3.4 56.838 59.558 56.838 59.558m-508-21.243s85.978 79.876 139.98 79.189c11.518-0.15576 21.859-5.0857 31.587-12.251 29.278-21.493 53.032-63.004 87.041-57.037 25.065 4.374 37.192 34.572 49.445 62.927 12.231 28.355 24.452 54.887 49.722 52.263 46.652-4.7656 40.615-89.877 60.973-135.2 6.7554-15.105 16.444-25.801 31.977-27.673 27.423-3.1518 57.274 59.452 57.274 59.452m-508-20.777s85.403 78.018 139.24 77.079c11.505-0.21911 21.846-5.1159 31.567-12.172 29.351-21.162 53.104-61.552 86.991-55.269 24.948 4.5791 37.164 34.555 49.573 62.49 12.366 27.936 24.653 53.87 49.784 51.032 46.315-5.0741 40.684-89.413 61.213-134.11 6.7818-14.893 16.471-25.404 31.924-27.197 27.615-2.9036 57.71 59.346 57.71 59.346m-508-20.311c1e-14 0 84.828 76.161 138.49 74.969 11.492-0.28245 21.833-5.1461 31.547-12.092 29.425-20.83 53.175-60.101 86.941-53.501 24.832 4.7841 37.136 34.538 49.701 62.054 12.501 27.516 24.854 52.852 49.846 49.801 45.977-5.3826 40.753-88.949 61.453-133.01 6.8082-14.68 16.499-25.006 31.872-26.722 27.806-2.6553 58.146 59.241 58.146 59.241m-508-19.845s84.253 74.303 137.75 72.859c11.479-0.34581 21.82-5.1763 31.528-12.013 29.499-20.499 53.246-58.649 86.891-51.733 24.716 4.9891 37.108 34.522 49.829 61.618 12.635 27.097 25.056 51.835 49.908 48.57 45.64-5.6911 40.822-88.484 61.693-131.92 6.8346-14.468 16.526-24.609 31.819-26.246 27.998-2.4071 58.583 59.135 58.583 59.135m-508-19.379s83.679 72.445 137 70.749c11.466-0.40915 21.807-5.2065 31.508-11.934 29.572-20.168 53.318-57.197 86.841-49.965 24.6 5.1942 37.08 34.505 49.957 61.182 12.77 26.678 25.257 50.818 49.97 47.338 45.303-5.9996 40.891-88.02 61.933-130.82 6.8609-14.256 16.553-24.212 31.767-25.771 28.19-2.1589 59.019 59.03 59.019 59.03m-508-18.913c-1e-14 0 83.104 70.588 136.26 68.639 11.453-0.4725 21.794-5.2368 31.489-11.854 29.646-19.836 53.389-55.745 86.791-48.197 24.484 5.3992 37.052 34.488 50.085 60.745 12.905 26.258 25.458 49.8 50.032 46.107 44.965-6.3081 40.96-87.556 62.173-129.73 6.8873-14.043 16.58-23.814 31.715-25.296 28.382-1.9107 59.455 58.924 59.455 58.924m-508-18.447c-1e-14 0 82.529 68.73 135.52 66.529 11.44-0.53585 21.781-5.267 31.469-11.775 29.719-19.505 53.461-54.294 86.741-46.429 24.368 5.6043 37.024 34.471 50.213 60.309 13.039 25.839 25.659 48.783 50.094 44.876 44.628-6.6166 41.029-87.092 62.413-128.63 6.9137-13.831 16.607-23.417 31.662-24.82 28.574-1.6625 59.891 58.818 59.891 58.818m-508-17.981c-1e-14 0 81.954 66.873 134.77 64.419 11.426-0.5992 21.768-5.2972 31.449-11.696 29.793-19.173 53.532-52.842 86.691-44.661 24.251 5.8093 36.995 34.455 50.34 59.873 13.174 25.42 25.86 47.765 50.156 43.645 44.291-6.9251 41.098-86.627 62.654-127.54 6.9401-13.618 16.634-23.02 31.61-24.345 28.766-1.4143 60.327 58.713 60.327 58.713m-508-17.515s81.379 65.015 134.03 62.309c11.413-0.66255 21.755-5.3274 31.43-11.617 29.866-18.842 53.603-51.39 86.641-42.893 24.135 6.0144 36.967 34.438 50.468 59.437 13.309 25 26.061 46.748 50.218 42.414 43.953-7.2336 41.168-86.163 62.894-126.44 6.9664-13.406 16.662-22.622 31.557-23.87 28.958-1.166 60.763 58.607 60.763 58.607m-508-17.049c1e-14 0 80.804 63.157 133.28 60.199 11.4-0.7259 21.742-5.3576 31.41-11.537 29.94-18.51 53.675-49.938 86.591-41.125 24.019 6.2194 36.939 34.421 50.596 59 13.443 24.581 26.263 45.731 50.28 41.182 43.616-7.5421 41.237-85.699 63.134-125.35 6.9928-13.193 16.689-22.225 31.505-23.394 29.15-0.91783 61.199 58.501 61.199 58.501m-508-16.583c1e-14 0 80.229 61.3 132.54 58.089 11.387-0.78924 21.729-5.3878 31.39-11.458 30.013-18.179 53.746-48.487 86.54-39.357 23.903 6.4245 36.911 34.405 50.724 58.564 13.578 24.161 26.464 44.713 50.343 39.951 43.278-7.8506 41.306-85.235 63.374-124.26 7.0192-12.981 16.716-21.827 31.452-22.919 29.341-0.66962 61.635 58.396 61.635 58.396m-508-16.117s79.655 59.442 131.8 55.979c11.374-0.85259 21.716-5.418 31.371-11.379 30.087-17.848 53.818-47.035 86.49-37.589 23.787 6.6295 36.883 34.388 50.852 58.128 13.712 23.742 26.665 43.696 50.405 38.72 42.941-8.1592 41.375-84.77 63.614-123.16 7.0456-12.769 16.743-21.43 31.4-22.444 29.533-0.4214 62.072 58.29 62.072 58.29m-508-15.651s79.08 57.585 131.05 53.868c11.361-0.91594 21.703-5.4482 31.351-11.299 30.161-17.516 53.889-45.583 86.44-35.821 23.67 6.8345 36.855 34.371 50.98 57.692 13.847 23.323 26.866 42.679 50.467 37.489 42.604-8.4676 41.444-84.306 63.854-122.07 7.072-12.556 16.77-21.033 31.347-21.968 29.725-0.17318 62.508 58.185 62.508 58.185m-508-15.185s78.505 55.727 130.31 51.758c11.348-0.97928 21.69-5.4784 31.332-11.22 30.234-17.185 53.96-44.131 86.39-34.052 23.554 7.0396 36.827 34.355 51.108 57.256 13.982 22.903 27.067 41.661 50.529 36.258 42.266-8.7762 41.513-83.842 64.094-120.97 7.0984-12.344 16.798-20.635 31.295-21.493 29.917 0.075032 62.944 58.079 62.944 58.079m-508-14.719s77.93 53.869 129.56 49.648c11.334-1.0426 21.677-5.5087 31.312-11.141 30.308-16.853 54.032-42.68 86.34-32.284 23.438 7.2446 36.799 34.338 51.236 56.819 14.116 22.484 27.269 40.644 50.591 35.027 41.929-9.0847 41.582-83.378 64.334-119.88 7.1248-12.131 16.825-20.238 31.243-21.017 30.109 0.32325 63.38 57.973 63.38 57.973m-508-14.253s77.355 52.012 128.82 47.538c11.321-1.106 21.664-5.5389 31.292-11.061 30.381-16.522 54.103-41.228 86.29-30.516 23.322 7.4497 36.771 34.321 51.364 56.383 14.251 22.064 27.47 39.626 50.653 33.795 41.592-9.3932 41.651-82.913 64.574-118.78 7.1511-11.919 16.852-19.841 31.19-20.542 30.301 0.57146 63.816 57.868 63.816 57.868m-508-13.788s76.78 50.154 128.08 45.428c11.308-1.1693 21.651-5.5691 31.273-10.982 30.455-16.19 54.175-39.776 86.24-28.748 23.206 7.6547 36.743 34.304 51.492 55.947 14.386 21.645 27.671 38.609 50.715 32.564 41.254-9.7017 41.72-82.449 64.814-117.69 7.1775-11.706 16.879-19.443 31.138-20.067 30.493 0.81968 64.252 57.762 64.252 57.762m-508-13.322s76.206 48.297 127.33 43.318c11.295-1.2327 21.638-5.5993 31.253-10.903 30.528-15.859 54.246-38.325 86.19-26.98 23.09 7.8598 36.714 34.288 51.62 55.511 14.52 21.226 27.872 37.592 50.777 31.333 40.917-10.01 41.789-81.985 65.054-116.59 7.2039-11.494 16.906-19.046 31.085-19.591 30.685 1.0679 64.688 57.657 64.688 57.657m-508-12.856s75.631 46.439 126.59 41.208c11.282-1.296 21.625-5.6295 31.233-10.823 30.602-15.528 54.317-36.873 86.14-25.212 22.973 8.0648 36.686 34.271 51.748 55.074 14.655 20.806 28.073 36.574 50.839 30.102 40.58-10.319 41.858-81.521 65.294-115.5 7.2303-11.282 16.933-18.648 31.033-19.116 30.877 1.3161 65.125 57.551 65.125 57.551m-508-12.39s75.056 44.581 125.84 39.098c11.269-1.3594 21.612-5.6597 31.214-10.744 30.675-15.196 54.389-35.421 86.09-23.444 22.857 8.2698 36.658 34.254 51.876 54.638 14.79 20.387 28.275 35.557 50.901 28.871 40.242-10.627 41.927-81.056 65.534-114.41 7.2567-11.069 16.961-18.251 30.98-18.641 31.068 1.5643 65.561 57.445 65.561 57.445m-508-11.924s74.481 42.724 125.1 36.988c11.256-1.4227 21.599-5.69 31.194-10.665 30.749-14.865 54.46-33.969 86.04-21.676 22.741 8.4749 36.63 34.238 52.004 54.202 14.924 19.968 28.476 34.54 50.963 27.64 39.905-10.936 41.996-80.592 65.774-113.31 7.283-10.857 16.988-17.854 30.928-18.165 31.26 1.8125 65.997 57.34 65.997 57.34m-508-11.458s73.906 40.866 124.36 34.878c11.243-1.4861 21.586-5.7202 31.175-10.585 30.822-14.533 54.532-32.518 85.989-19.908 22.625 8.6799 36.602 34.221 52.131 53.766 15.059 19.548 28.677 33.522 51.025 26.408 39.567-11.244 42.065-80.128 66.014-112.22 7.3094-10.644 17.015-17.456 30.875-17.69 31.452 2.0608 66.433 57.234 66.433 57.234m-508-10.992s73.331 39.009 123.61 32.768c11.229-1.5494 21.573-5.7504 31.155-10.506 30.896-14.202 54.603-31.066 85.939-18.14 22.509 8.885 36.574 34.204 52.259 53.329 15.194 19.129 28.878 32.505 51.087 25.177 39.23-11.553 42.134-79.664 66.254-111.12 7.3358-10.432 17.042-17.059 30.823-17.215 31.644 2.309 66.869 57.128 66.869 57.128m-508-10.526c-1e-13 0 72.757 37.151 122.87 30.658 11.216-1.6128 21.56-5.7806 31.135-10.427 30.97-13.871 54.674-29.614 85.889-16.372 22.393 9.09 36.546 34.188 52.387 52.893 15.328 18.709 29.079 31.487 51.149 23.946 38.893-11.861 42.203-79.199 66.495-110.03 7.3622-10.219 17.069-16.662 30.77-16.739 31.836 2.5572 67.305 57.023 67.305 57.023m-508-10.06s72.182 35.293 122.13 28.548c11.203-1.6761 21.547-5.8108 31.116-10.348 31.043-13.539 54.746-28.162 85.839-14.604 22.276 9.2951 36.518 34.171 52.515 52.457 15.463 18.29 29.28 30.47 51.211 22.715 38.555-12.17 42.272-78.735 66.735-108.93 7.3886-10.007 17.097-16.264 30.718-16.264 32.028 2.8054 67.741 56.917 67.741 56.917m-508-9.594s71.607 33.436 121.38 26.438c11.19-1.7395 21.534-5.841 31.096-10.268 31.117-13.208 54.817-26.711 85.789-12.836 22.16 9.5001 36.49 34.154 52.643 52.021 15.597 17.871 29.482 29.453 51.273 21.484 38.218-12.478 42.342-78.271 66.975-107.84 7.415-9.7946 17.124-15.867 30.666-15.788 32.22 3.0536 68.177 56.812 68.177 56.812m-508-9.128s71.032 31.578 120.64 24.328c11.177-1.8028 21.521-5.8712 31.076-10.189 31.19-12.876 54.889-25.259 85.739-11.068 22.044 9.7052 36.461 34.138 52.771 51.584 15.732 17.451 29.683 28.435 51.335 20.252 37.881-12.787 42.411-77.806 67.215-106.74 7.4413-9.5822 17.151-15.469 30.613-15.313 32.412 3.3018 68.614 56.706 68.614 56.706m-508-8.6621s70.457 29.72 119.89 22.218c11.164-1.8662 21.508-5.9014 31.057-10.11 31.264-12.545 54.96-23.807 85.689-9.3 21.928 9.9102 36.433 34.121 52.899 51.148 15.867 17.032 29.884 27.418 51.397 19.021 37.543-13.095 42.48-77.342 67.455-105.65 7.4677-9.3698 17.178-15.072 30.561-14.838 32.603 3.5501 69.05 56.6 69.05 56.6m-508-8.1962s69.882 27.863 119.15 20.107c11.151-1.9295 21.495-5.9316 31.037-10.03 31.337-12.213 55.031-22.355 85.639-7.5319 21.812 10.115 36.405 34.104 53.027 50.712 16.001 16.612 30.085 26.401 51.459 17.79 37.206-13.404 42.549-76.878 67.695-104.56 7.4941-9.1573 17.205-14.675 30.508-14.362 32.795 3.7983 69.486 56.495 69.486 56.495m-508-7.7302s69.307 26.005 118.41 17.997c11.137-1.9929 21.482-5.9619 31.018-9.951 31.411-11.882 55.103-20.904 85.589-5.7639 21.696 10.32 36.377 34.087 53.155 50.276 16.136 16.193 30.286 25.383 51.521 16.559 36.868-13.712 42.618-76.414 67.935-103.46 7.5205-8.9449 17.233-14.277 30.456-13.887 32.987 4.0465 69.922 56.389 69.922 56.389m-508-7.2642s68.733 24.148 117.66 15.887c11.124-2.0562 21.469-5.9921 30.998-9.8717 31.484-11.551 55.174-19.452 85.539-3.9958 21.579 10.525 36.349 34.071 53.283 49.839 16.271 15.774 30.488 24.366 51.583 15.328 36.531-14.021 42.687-75.949 68.175-102.37 7.5469-8.7325 17.26-13.88 30.403-13.412 33.179 4.2947 70.358 56.284 70.358 56.284m-508-6.7983s68.158 22.29 116.92 13.777c11.111-2.1196 21.456-6.0223 30.978-9.7924 31.558-11.219 55.246-18 85.488-2.2278 21.463 10.73 36.321 34.054 53.411 49.403 16.405 15.354 30.689 23.348 51.645 14.097 36.194-14.329 42.756-75.485 68.415-101.27 7.5732-8.5201 17.287-13.483 30.351-12.936 33.371 4.5429 70.794 56.178 70.794 56.178m-508-6.3323s67.583 20.432 116.17 11.667c11.098-2.1829 21.443-6.0525 30.959-9.7131 31.632-10.888 55.317-16.548 85.438-0.45977 21.347 10.935 36.293 34.037 53.539 48.967 16.54 14.935 30.89 22.331 51.707 12.865 35.856-14.638 42.825-75.021 68.655-100.18 7.5996-8.3076 17.314-13.085 30.298-12.461 33.563 4.7911 71.23 56.072 71.23 56.072m-508-5.8664s67.008 18.575 115.43 9.5572c11.085-2.2462 21.43-6.0827 30.939-9.6337 31.705-10.556 55.388-15.097 85.388 1.3083 21.231 11.14 36.265 34.021 53.667 48.531 16.675 14.516 31.091 21.314 51.769 11.634 35.519-14.946 42.894-74.557 68.895-99.084 7.626-8.0952 17.341-12.688 30.246-11.986 33.755 5.0393 71.666 55.967 71.666 55.967m-508-5.4004s66.433 16.717 114.69 7.4471c11.072-2.3096 21.418-6.1129 30.919-9.5544 31.779-10.225 55.46-13.645 85.338 3.0763 21.115 11.346 36.237 34.004 53.794 48.094 16.809 14.096 31.292 20.296 51.831 10.403 35.182-15.255 42.963-74.092 69.135-97.989 7.6524-7.8828 17.368-12.29 30.194-11.51 33.947 5.2876 72.103 55.861 72.103 55.861m-508-4.9345s65.858 14.86 113.94 5.337c11.059-2.3729 21.405-6.1431 30.9-9.4751 31.852-9.8935 55.531-12.193 85.288 4.8443 20.999 11.551 36.209 33.987 53.922 47.658 16.944 13.677 31.494 19.279 51.893 9.1719 34.844-15.563 43.032-73.628 69.375-96.895 7.6788-7.6704 17.396-11.893 30.141-11.035 34.139 5.5358 72.539 55.755 72.539 55.755m-508-4.4685s65.284 13.002 113.2 3.227c11.046-2.4363 21.392-6.1734 30.88-9.3958 31.926-9.5621 55.603-10.742 85.238 6.6124 20.882 11.756 36.18 33.971 54.05 47.222 17.079 13.257 31.695 18.262 51.955 7.9408 34.507-15.872 43.101-73.164 69.615-95.8 7.7052-7.4579 17.423-11.496 30.089-10.559 34.33 5.784 72.975 55.65 72.975 55.65m-508-4.0026s64.709 11.144 112.45 1.1169c11.032-2.4996 21.379-6.2036 30.861-9.3165 31.999-9.2307 55.674-9.2898 85.188 8.3804 20.766 11.961 36.152 33.954 54.178 46.786 17.213 12.838 31.896 17.244 52.017 6.7096 34.17-16.18 43.17-72.7 69.855-94.706 7.7315-7.2455 17.45-11.098 30.036-10.084 34.522 6.0322 73.411 55.544 73.411 55.544m-508-3.5366s64.134 9.2868 111.71-0.99316c11.019-2.563 21.366-6.2338 30.841-9.2372 32.073-8.8992 55.745-7.8381 85.138 10.148 20.65 12.166 36.124 33.937 54.306 46.349 17.348 12.419 32.097 16.227 52.079 5.4784 33.832-16.489 43.239-72.235 70.095-93.611 7.7579-7.0331 17.477-10.701 29.984-9.6088 34.714 6.2804 73.847 55.439 73.847 55.439m-508-3.0707s63.559 7.4292 110.97-3.1032c11.006-2.6263 21.353-6.264 30.821-9.1579 32.146-8.5678 55.817-6.3863 85.088 11.916 20.534 12.371 36.096 33.92 54.434 45.913 17.482 11.999 32.298 15.21 52.141 4.2472 33.495-16.797 43.308-71.771 70.336-92.517 7.7843-6.8207 17.504-10.304 29.931-9.1334 34.906 6.5286 74.283 55.333 74.283 55.333m-508-2.6047s62.984 5.5716 110.22-5.2133c10.993-2.6897 21.34-6.2942 30.802-9.0786 32.22-8.2364 55.888-4.9346 85.038 13.685 20.418 12.576 36.068 33.904 54.562 45.477 17.617 11.58 32.5 14.192 52.203 3.016 33.157-17.106 43.377-71.307 70.576-91.423 7.8107-6.6082 17.532-9.9061 29.879-8.658 35.098 6.7769 74.719 55.227 74.719 55.227m-508-2.1388s62.409 3.714 109.48-7.3234c10.98-2.753 21.327-6.3244 30.782-8.9992 32.294-7.905 55.96-3.4828 84.987 15.453 20.302 12.781 36.04 33.887 54.69 45.041 17.752 11.16 32.701 13.175 52.265 1.7849 32.82-17.414 43.446-70.843 70.816-90.328 7.8371-6.3958 17.559-9.5088 29.826-8.1827 35.29 7.0251 75.156 55.122 75.156 55.122m-508-1.6728s61.834 1.8564 108.73-9.4334c10.967-2.8164 21.314-6.3546 30.763-8.9199 32.367-7.5736 56.031-2.0311 84.937 17.221 20.185 12.986 36.012 33.87 54.818 44.604 17.886 10.741 32.902 12.157 52.327 0.55371 32.483-17.723 43.516-70.378 71.056-89.234 7.8634-6.1834 17.586-9.1114 29.774-7.7073 35.482 7.2733 75.592 55.016 75.592 55.016m-508-1.2069s61.26-1e-3 107.99-11.543c10.954-2.8797 21.301-6.3848 30.743-8.8406 32.441-7.2421 56.102-0.57938 84.887 18.989 20.069 13.191 35.984 33.854 54.946 44.168 18.021 10.322 33.103 11.14 52.39-0.67748 32.145-18.031 43.585-69.914 71.296-88.139 7.8898-5.971 17.613-8.714 29.722-7.232 35.674 7.5215 76.028 54.911 76.028 54.911m-508-0.74094s60.685-1.8588 107.25-13.654c10.941-2.9431 21.288-6.415 30.723-8.7613 32.514-6.9107 56.174 0.87236 84.837 20.757 19.953 13.396 35.956 33.837 55.074 43.732 18.156 9.9023 33.304 10.123 52.452-1.9086 31.808-18.34 43.654-69.45 71.536-87.045 7.9162-5.7585 17.64-8.3166 29.669-6.7566 35.865 7.7697 76.464 54.805 76.464 54.805m-508-0.27499s60.11-3.7164 106.5-15.764c10.927-3.0064 21.275-6.4453 30.704-8.682 32.588-6.5793 56.245 2.3241 84.787 22.525 19.837 13.601 35.927 33.82 55.202 43.296 18.29 9.483 33.505 9.1053 52.514-3.1398 31.471-18.648 43.723-68.986 71.776-85.95 7.9426-5.5461 17.667-7.9193 29.617-6.2812 36.057 8.0179 76.9 54.699 76.9 54.699m-508 0.19096s59.535-5.574 105.76-17.874c10.914-3.0698 21.262-6.4755 30.684-8.6027 32.661-6.2479 56.317 3.7758 84.737 24.293 19.721 13.806 35.899 33.804 55.33 42.859 18.425 9.0636 33.707 8.0879 52.576-4.371 31.133-18.957 43.792-68.521 72.016-84.856 7.969-5.3337 17.695-7.5219 29.564-5.8059 36.249 8.2662 77.336 54.594 77.336 54.594m-508 0.65691s58.96-7.4316 105.01-19.984c10.901-3.1331 21.249-6.5057 30.664-8.5234 32.735-5.9165 56.388 5.2276 84.687 26.061 19.605 14.011 35.871 33.787 55.457 42.423 18.56 8.6442 33.908 7.0705 52.638-5.6022 30.796-19.265 43.861-68.057 72.256-83.761 7.9954-5.1213 17.722-7.1245 29.512-5.3305 36.441 8.5144 77.772 54.488 77.772 54.488m-508 1.1229s58.385-9.2892 104.27-22.094c10.888-3.1965 21.236-6.5359 30.645-8.4441 32.808-5.585 56.459 6.6793 84.637 27.829 19.488 14.216 35.843 33.77 55.585 41.987 18.694 8.2248 34.109 6.0532 52.7-6.8334 30.458-19.574 43.93-67.593 72.496-82.667 8.0217-4.9088 17.749-6.7271 29.459-4.8551 36.633 8.7626 78.208 54.382 78.208 54.382m-508 1.5888s57.811-11.147 103.53-24.204c10.875-3.2598 21.223-6.5661 30.625-8.3648 32.882-5.2536 56.531 8.131 84.587 29.597 19.372 14.421 35.815 33.753 55.713 41.551 18.829 7.8054 34.31 5.0358 52.762-8.0645 30.121-19.882 43.999-67.129 72.736-81.573 8.0481-4.6964 17.776-6.3298 29.407-4.3798 36.825 9.0108 78.645 54.277 78.645 54.277m-508 2.0548s57.236-13.004 102.78-26.314c10.862-3.3232 21.21-6.5963 30.606-8.2854 32.955-4.9222 56.602 9.5828 84.537 31.365 19.256 14.626 35.787 33.737 55.841 41.115 18.964 7.386 34.511 4.0184 52.824-9.2957 29.784-20.191 44.068-66.664 72.976-80.478 8.0745-4.484 17.803-5.9324 29.354-3.9044 37.017 9.259 79.081 54.171 79.081 54.171m-508 2.5207s56.661-14.862 102.04-28.424c10.849-3.3865 21.197-6.6265 30.586-8.2061 33.029-4.5908 56.674 11.035 84.486 33.133 19.14 14.831 35.759 33.72 55.969 40.678 19.098 6.9666 34.713 3.001 52.886-10.527 29.446-20.499 44.137-66.2 73.216-79.384 8.1009-4.2716 17.831-5.535 29.302-3.4291 37.209 9.5072 79.517 54.066 79.517 54.066m-508 2.9867s56.086-16.72 101.29-30.534c10.835-3.4499 21.184-6.6567 30.566-8.1268 33.103-4.2594 56.745 12.486 84.436 34.901 19.024 15.036 35.731 33.703 56.097 40.242 19.233 6.5473 34.914 1.9837 52.948-11.758 29.109-20.808 44.206-65.736 73.456-78.289 8.1273-4.0591 17.858-5.1376 29.249-2.9537 37.401 9.7554 79.953 53.96 79.953 53.96m-508 3.4526s55.511-18.577 100.55-32.644c10.822-3.5132 21.171-6.687 30.547-8.0475 33.176-3.9279 56.816 13.938 84.386 36.669 18.908 15.241 35.703 33.687 56.225 39.806 19.367 6.1279 35.115 0.96631 53.01-12.989 28.772-21.116 44.275-65.272 73.696-77.195 8.1537-3.8467 17.885-4.7403 29.197-2.4783 37.592 10.004 80.389 53.854 80.389 53.854m-508 3.9186s54.936-20.435 99.806-34.754c10.809-3.5766 21.158-6.7172 30.527-7.9682 33.25-3.5965 56.888 15.39 84.336 38.437 18.791 15.446 35.674 33.67 56.353 39.37 19.502 5.7085 35.316-0.0511 53.072-14.22 28.434-21.425 44.344-64.807 73.936-76.1 8.18-3.6343 17.912-4.3429 29.145-2.003 37.784 10.252 80.825 53.749 80.825 53.749m-508 4.3845s54.361-22.292 99.062-36.864c10.796-3.6399 21.145-6.7474 30.507-7.8889 33.323-3.2651 56.959 16.841 84.286 40.205 18.675 15.651 35.646 33.653 56.481 38.933 19.637 5.2891 35.517-1.0684 53.134-15.452 28.097-21.733 44.413-64.343 74.176-75.006 8.2064-3.4219 17.939-3.9455 29.092-1.5276 37.976 10.5 81.261 53.643 81.261 53.643m-508 4.8505s53.787-24.15 98.318-38.974c10.783-3.7033 21.132-6.7776 30.488-7.8096 33.397-2.9337 57.031 18.293 84.236 41.973 18.559 15.856 35.618 33.637 56.609 38.497 19.771 4.8697 35.719-2.0858 53.196-16.683 27.76-22.042 44.482-63.879 74.417-73.912 8.2328-3.2094 17.966-3.5481 29.04-1.0522 38.168 10.748 81.698 53.538 81.698 53.538m-508 5.3164s53.212-26.008 97.574-41.084c10.77-3.7666 21.119-6.8078 30.468-7.7303 33.47-2.6022 57.102 19.745 84.186 43.741 18.443 16.062 35.59 33.62 56.737 38.061 19.906 4.4504 35.92-3.1032 53.258-17.914 27.422-22.35 44.551-63.415 74.657-72.817 8.2592-2.997 17.994-3.1508 28.987-0.57688 38.36 10.997 82.134 53.432 82.134 53.432m-508 5.7824s52.637-27.865 96.83-43.194c10.757-3.83 21.106-6.838 30.449-7.6509 33.544-2.2708 57.173 21.197 84.136 45.509 18.327 16.267 35.562 33.603 56.865 37.625 20.041 4.031 36.121-4.1206 53.32-19.145 27.085-22.659 44.62-62.95 74.897-71.723 8.2856-2.7846 18.021-2.7534 28.935-0.10152 38.552 11.245 82.57 53.326 82.57 53.326m-508 6.2483s52.062-29.723 96.086-45.304c10.744-3.8933 21.093-6.8682 30.429-7.5716 33.617-1.9394 57.245 22.648 84.086 47.277 18.211 16.472 35.534 33.587 56.993 37.188 20.175 3.6116 36.322-5.1379 53.382-20.376 26.747-22.967 44.69-62.486 75.137-70.628 8.3119-2.5722 18.048-2.356 28.882 0.37384 38.744 11.493 83.006 53.221 83.006 53.221m-508 6.7143s51.487-31.58 95.342-47.415c10.73-3.9567 21.08-6.8985 30.409-7.4923 33.691-1.608 57.316 24.1 84.036 49.045 18.094 16.677 35.506 33.57 57.12 36.752 20.31 3.1922 36.523-6.1553 53.444-21.607 26.41-23.276 44.759-62.022 75.377-69.534 8.3383-2.3597 18.075-1.9586 28.83 0.8492 38.936 11.741 83.442 53.115 83.442 53.115m-508 7.1802s50.912-33.438 94.598-49.525c10.717-4.02 21.067-6.9287 30.39-7.413 33.765-1.2766 57.388 25.552 83.986 50.813 17.978 16.882 35.478 33.553 57.248 36.316 20.445 2.7728 36.724-7.1727 53.506-22.839 26.073-23.584 44.828-61.558 75.617-68.439 8.3647-2.1473 18.102-1.5613 28.777 1.3246 39.127 11.989 83.878 53.01 83.878 53.01m-508 7.6462s50.338-35.296 93.854-51.635c10.704-4.0833 21.054-6.9589 30.37-7.3337 33.838-0.94514 57.459 27.004 83.935 52.581 17.862 17.087 35.45 33.536 57.376 35.88 20.579 2.3534 36.926-8.19 53.568-24.07 25.735-23.893 44.897-61.093 75.857-67.345 8.3911-1.9349 18.13-1.1639 28.725 1.7999 39.319 12.238 84.314 52.904 84.314 52.904m-508 8.1121s49.763-37.153 93.11-53.745c10.691-4.1467 21.041-6.9891 30.35-7.2544 33.912-0.61372 57.53 28.455 83.885 54.349 17.746 17.292 35.422 33.52 57.504 35.443 20.714 1.934 37.127-9.2074 53.63-25.301 25.398-24.201 44.966-60.629 76.097-66.251 8.4175-1.7225 18.157-0.76651 28.673 2.2753 39.511 12.486 84.75 52.798 84.75 52.798m-508 8.5781s49.188-39.011 92.366-55.855c10.678-4.21 21.028-7.0193 30.331-7.1751 33.985-0.2823 57.602 29.907 83.835 56.117 17.63 17.497 35.393 33.503 57.632 35.007 20.849 1.5147 37.328-10.225 53.692-26.532 25.061-24.51 45.035-60.165 76.337-65.156 8.4439-1.51 18.184-0.36913 28.62 2.7506 39.703 12.734 85.187 52.693 85.187 52.693m-508 9.044s48.613-40.869 91.622-57.965c10.665-4.2734 21.015-7.0495 30.311-7.0958 34.059 0.04912 57.673 31.359 83.785 57.885 17.514 17.702 35.365 33.486 57.76 34.571 20.983 1.0953 37.529-11.242 53.754-27.763 24.723-24.818 45.104-59.701 76.577-64.062 8.4702-1.2976 18.211 0.02824 28.568 3.226 39.895 12.982 85.623 52.587 85.623 52.587m-508 9.51s48.038-42.726 90.878-60.075c10.652-4.3367 21.002-7.0797 30.292-7.0164 34.132 0.38054 57.744 32.811 83.735 59.653 17.397 17.907 35.337 33.47 57.888 34.135 21.118 0.6759 37.73-12.26 53.816-28.994 24.386-25.127 45.173-59.236 76.817-62.967 8.4966-1.0852 18.238 0.42562 28.515 3.7014 40.087 13.23 86.059 52.481 86.059 52.481m-508 9.9759s47.463-44.584 90.134-62.185c10.638-4.4001 20.989-7.1099 30.272-6.9371 34.206 0.71196 57.816 34.262 83.685 61.422 17.281 18.112 35.309 33.453 58.016 33.698 21.252 0.25651 37.932-13.277 53.878-30.226 24.049-25.435 45.242-58.772 77.057-61.873 8.523-0.87275 18.265 0.823 28.463 4.1767 40.279 13.479 86.495 52.376 86.495 52.376m-508 10.442s46.889-46.441 89.39-64.295c10.625-4.4634 20.977-7.1402 30.252-6.8578 34.279 1.0434 57.887 35.714 83.635 63.19 17.165 18.317 35.281 33.436 58.144 33.262 21.387-0.16287 38.133-14.294 53.94-31.457 23.711-25.744 45.311-58.308 77.297-60.778 8.5494-0.66032 18.293 1.2204 28.41 4.6521 40.471 13.727 86.931 52.27 86.931 52.27" stroke="#ff2d2d"/> <path class="UnoptimicedTransforms" transform="matrix(1.3375 0 0 1.3375 .15516 40.301)" d="m0.07476 513.35s36.523-42.528 61.999-45.689c9.5228-1.1818 18.549 1.0434 27.33 5.0229 26.344 11.938 50.488 39.666 79.255 38.558 25.751-0.99119 47.513-19.917 69.231-37.801 21.718-17.884 43.391-34.725 68.964-31.546 35.292 4.3867 51.85 58.618 77.688 82.37 8.6126 7.9173 18.256 12.448 29.969 10.617 59.156-9.247 93.62-153.3 93.62-153.3m-508.06 130.86s36.538-41.118 62.205-43.922c9.5304-1.0875 18.572 1.1541 27.368 5.071 26.447 11.745 50.395 38.518 78.971 36.93 25.541-1.3084 47.172-20.277 68.905-37.97 21.692-17.688 43.273-34.152 68.689-30.796 35.097 4.6576 51.664 58.65 77.538 82.196 8.6586 7.8574 18.368 12.336 30.132 10.511 59.209-9.1986 94.249-151.85 94.249-151.85m-508.06 128.93s36.554-39.708 62.41-42.155c9.538-0.99329 18.596 1.2649 27.406 5.119 26.55 11.551 50.301 37.371 78.686 35.302 25.331-1.6256 46.832-20.636 68.58-38.139 21.666-17.493 43.154-33.58 68.414-30.047 34.901 4.9286 51.477 58.683 77.389 82.023 8.7046 7.7975 18.479 12.224 30.295 10.406 59.262-9.1501 94.877-150.41 94.877-150.41m-508.06 127s36.569-38.298 62.616-40.388c9.5455-0.89903 18.619 1.3756 27.444 5.1671 26.653 11.357 50.207 36.223 78.402 33.674 25.121-1.9429 46.491-20.996 68.255-38.308 21.64-17.297 43.035-33.008 68.139-29.297 34.705 5.1996 51.29 58.715 77.239 81.849 8.7506 7.7376 18.59 12.112 30.459 10.3 59.314-9.1016 95.506-148.97 95.506-148.97m-508.06 125.07s36.585-36.888 62.821-38.621c9.5531-0.80478 18.643 1.4863 27.482 5.2151 26.756 11.163 50.113 35.076 78.118 32.046 24.911-2.2601 46.15-21.355 67.929-38.478 21.614-17.102 42.917-32.436 67.864-28.547 34.509 5.4706 51.104 58.748 77.089 81.676 8.7966 7.6777 18.701 12.001 30.622 10.194 59.367-9.0532 96.134-147.53 96.134-147.53m-508.06 123.14s36.6-35.478 63.027-36.854c9.5607-0.71052 18.667 1.597 27.52 5.2632 26.859 10.969 50.019 33.929 77.834 30.418 24.7-2.5773 45.81-21.715 67.604-38.647 21.588-16.907 42.798-31.863 67.589-27.798 34.314 5.7415 50.917 58.78 76.94 81.502 8.8426 7.6178 18.812 11.889 30.785 10.088 59.42-9.0047 96.763-146.08 96.763-146.08m-508.06 121.21s36.616-34.068 63.232-35.086c9.5683-0.61627 18.69 1.7078 27.558 5.3113 26.962 10.775 49.925 32.781 77.55 28.79 24.49-2.8946 45.469-22.074 67.278-38.816 21.561-16.711 42.679-31.291 67.314-27.048 34.118 6.0125 50.73 58.813 76.79 81.329 8.8886 7.5579 18.923 11.777 30.949 9.9823 59.473-8.9563 97.391-144.64 97.391-144.64m-508.06 119.28s36.631-32.658 63.438-33.319c9.5758-0.52201 18.714 1.8185 27.596 5.3593 27.065 10.581 49.832 31.634 77.266 27.162 24.28-3.2118 45.128-22.434 66.953-38.985 21.535-16.516 42.561-30.719 67.039-26.298 33.922 6.2835 50.544 58.845 76.64 81.155 8.9346 7.498 19.035 11.665 31.112 9.8764 59.526-8.9078 98.02-143.2 98.02-143.2m-508.06 117.35s36.647-31.248 63.643-31.552c9.5834-0.42775 18.737 1.9292 27.634 5.4074 27.168 10.388 49.738 30.487 76.982 25.534 24.07-3.529 44.788-22.793 66.627-39.155 21.509-16.32 42.442-30.146 66.764-25.548 33.727 6.5544 50.357 58.878 76.491 80.982 8.9806 7.4381 19.146 11.553 31.275 9.7706 59.578-8.8594 98.648-141.76 98.648-141.76m-508.07 115.42s36.662-29.838 63.848-29.785c9.591-0.3335 18.761 2.04 27.672 5.4554 27.271 10.194 49.644 29.339 76.698 23.906 23.86-3.8462 44.447-23.153 66.302-39.324 21.483-16.125 42.323-29.574 66.489-24.799 33.531 6.8254 50.17 58.91 76.341 80.808 9.0266 7.3782 19.257 11.441 31.439 9.6648 59.631-8.8109 99.277-140.32 99.277-140.32m-508.07 113.48s36.677-28.428 64.054-28.018c9.5986-0.23925 18.785 2.1507 27.71 5.5035 27.374 9.9998 49.55 28.192 76.414 22.278 23.65-4.1635 44.106-23.512 65.976-39.493 21.457-15.929 42.205-29.002 66.214-24.049 33.335 7.0964 49.984 58.942 76.191 80.634 9.0725 7.3183 19.368 11.33 31.602 9.559 59.684-8.7624 99.905-138.87 99.905-138.87m-508.07 111.55s36.693-27.018 64.259-26.25c9.6062-0.14498 18.808 2.2614 27.748 5.5516 27.477 9.8059 49.456 27.045 76.13 20.65 23.44-4.4807 43.765-23.872 65.651-39.662 21.431-15.734 42.086-28.43 65.939-23.299 33.14 7.3674 49.797 58.975 76.041 80.461 9.1185 7.2584 19.479 11.218 31.765 9.4532 59.737-8.714 100.53-137.43 100.53-137.43m-508.07 109.62s36.708-25.608 64.465-24.483c9.6137-0.0507 18.832 2.3722 27.786 5.5996 27.58 9.612 49.362 25.897 75.846 19.022 23.23-4.7979 43.425-24.231 65.325-39.831 21.405-15.539 41.967-27.857 65.664-22.55 32.944 7.6383 49.61 59.007 75.892 80.287 9.1645 7.1984 19.59 11.106 31.929 9.3473 59.79-8.6655 101.16-135.99 101.16-135.99m-508.07 107.69s36.724-24.198 64.67-22.716c9.6213 0.0435 18.856 2.4829 27.824 5.6477 27.683 9.4182 49.269 24.75 75.561 17.394 23.02-5.1151 43.084-24.591 65-40.001 21.379-15.343 41.849-27.285 65.389-21.8 32.748 7.9093 49.424 59.04 75.742 80.114 9.2105 7.1385 19.702 10.994 32.092 9.2415 59.842-8.6171 101.79-134.55 101.79-134.55m-508.07 105.76s36.739-22.788 64.876-20.949c9.6289 0.13778 18.879 2.5936 27.862 5.6958 27.786 9.2243 49.175 23.603 75.277 15.766 22.81-5.4324 42.743-24.95 64.675-40.17 21.353-15.148 41.73-26.713 65.114-21.05 32.552 8.1803 49.237 59.072 75.592 79.94 9.2565 7.0786 19.813 10.882 32.255 9.1357 59.895-8.5686 102.42-133.1 102.42-133.1m-508.07 103.83s36.755-21.378 65.081-19.182c9.6365 0.23204 18.903 2.7044 27.9 5.7438 27.889 9.0304 49.081 22.455 74.993 14.138 22.6-5.7496 42.403-25.31 64.349-40.339 21.327-14.952 41.611-26.141 64.839-20.3 32.357 8.4512 49.05 59.105 75.443 79.767 9.3025 7.0187 19.924 10.77 32.418 9.0299 59.948-8.5202 103.05-131.66 103.05-131.66m-508.07 101.9s36.77-19.968 65.287-17.415c9.644 0.32629 18.926 2.8151 27.938 5.7919 27.992 8.8366 48.987 21.308 74.709 12.51 22.39-6.0668 42.062-25.669 64.024-40.508 21.301-14.757 41.493-25.568 64.564-19.551 32.161 8.7222 48.864 59.137 75.293 79.593 9.3485 6.9588 20.035 10.658 32.582 8.924 60.001-8.4717 103.68-130.22 103.68-130.22m-508.07 99.969s36.786-18.558 65.492-15.647c9.6516 0.42055 18.95 2.9258 27.976 5.84 28.095 8.6427 48.893 20.16 74.425 10.882 22.18-6.384 41.721-26.029 63.698-40.678 21.275-14.561 41.374-24.996 64.289-18.801 31.965 8.9932 48.677 59.17 75.143 79.42 9.3945 6.8989 20.146 10.547 32.745 8.8182 60.054-8.4232 104.3-128.78 104.3-128.78m-508.07 98.039s36.801-17.148 65.697-13.88c9.6592 0.5148 18.974 3.0366 28.014 5.888 28.198 8.4488 48.799 19.013 74.141 9.2543 21.97-6.7013 41.381-26.388 63.373-40.847 21.249-14.366 41.255-24.424 64.014-18.051 31.77 9.2642 48.49 59.202 74.993 79.246 9.4405 6.839 20.257 10.435 32.908 8.7124 60.106-8.3748 104.93-127.33 104.93-127.33m-508.07 96.108s36.817-15.738 65.903-12.113c9.6668 0.60906 18.997 3.1473 28.052 5.9361 28.301 8.255 48.706 17.866 73.857 7.6263 21.76-7.0185 41.04-26.748 63.047-41.016 21.222-14.171 41.137-23.851 63.739-17.302 31.574 9.5351 48.304 59.234 74.844 79.073 9.4865 6.7791 20.369 10.323 33.072 8.6066 60.159-8.3263 105.56-125.89 105.56-125.89m-508.08 94.177s36.832-14.328 66.108-10.346c9.6743 0.70331 19.021 3.258 28.09 5.9842 28.404 8.0611 48.612 16.718 73.573 5.9983 21.55-7.3357 40.699-27.107 62.722-41.185 21.196-13.975 41.018-23.279 63.464-16.552 31.378 9.8061 48.117 59.267 74.694 78.899 9.5324 6.7192 20.48 10.211 33.235 8.5008 60.212-8.2779 106.19-124.45 106.19-124.45m-508.08 92.246s36.848-12.918 66.314-8.5787c9.6819 0.79757 19.044 3.3688 28.128 6.0322 28.507 7.8672 48.518 15.571 73.289 4.3703 21.34-7.653 40.359-27.467 62.396-41.354 21.17-13.78 40.899-22.707 63.189-15.802 31.183 10.077 47.93 59.299 74.544 78.726 9.5784 6.6593 20.591 10.099 33.398 8.3949 60.265-8.2294 106.82-123.01 106.82-123.01m-508.08 90.316s36.863-11.508 66.519-6.8115c9.6895 0.89182 19.068 3.4795 28.166 6.0803 28.61 7.6734 48.424 14.424 73.005 2.7423 21.13-7.9702 40.018-27.826 62.071-41.524 21.144-13.584 40.781-22.135 62.914-15.052 30.987 10.348 47.744 59.332 74.395 78.552 9.6244 6.5994 20.702 9.9874 33.562 8.2891 60.318-8.181 107.45-121.56 107.45-121.56m-508.08 88.385s36.879-10.098 66.725-5.0444c9.6971 0.98608 19.092 3.5902 28.204 6.1284 28.713 7.4795 48.33 13.276 72.72 1.1143 20.92-8.2874 39.677-28.186 61.746-41.693 21.118-13.389 40.662-21.562 62.639-14.303 30.791 10.619 47.557 59.364 74.245 78.378 9.6704 6.5395 20.813 9.8755 33.725 8.1833 60.37-8.1325 108.08-120.12 108.08-120.12m-508.08 86.454s36.894-8.6884 66.93-3.2772c9.7046 1.0803 19.115 3.7009 28.242 6.1764 28.816 7.2856 48.236 12.129 72.436-0.51373 20.71-8.6046 39.337-28.545 61.42-41.862 21.092-13.194 40.543-20.99 62.364-13.553 30.595 10.89 47.37 59.397 74.095 78.205 9.7164 6.4796 20.925 9.7637 33.888 8.0775 60.423-8.084 108.7-118.68 108.7-118.68m-508.08 84.523s36.909-7.2785 67.136-1.51c9.7122 1.1746 19.139 3.8117 28.28 6.2245 28.919 7.0918 48.143 10.982 72.152-2.1417 20.499-8.9219 38.996-28.905 61.095-42.031 21.066-12.998 40.425-20.418 62.089-12.803 30.4 11.161 47.184 59.429 73.946 78.031 9.7624 6.4197 21.036 9.6518 34.052 7.9716 60.476-8.0356 109.33-117.24 109.33-117.24m-508.08 82.593s36.925-5.8685 67.341 0.25718c9.7198 1.2688 19.163 3.9224 28.318 6.2725 29.022 6.8979 48.049 9.8343 71.868-3.7697 20.289-9.2391 38.655-29.264 60.769-42.201 21.04-12.803 40.306-19.845 61.814-12.054 30.204 11.432 46.997 59.462 73.796 77.858 9.8084 6.3598 21.147 9.54 34.215 7.8658 60.529-7.9871 109.96-115.79 109.96-115.79m-508.08 80.662s36.94-4.4585 67.547 2.0244c9.7274 1.3631 19.186 4.0331 28.356 6.3206 29.125 6.704 47.955 8.687 71.584-5.3977 20.079-9.5563 38.315-29.624 60.444-42.37 21.014-12.607 40.187-19.273 61.539-11.304 30.008 11.703 46.81 59.494 73.646 77.684 9.8544 6.2999 21.258 9.4281 34.378 7.76 60.581-7.9387 110.59-114.35 110.59-114.35m-508.08 78.731s36.956-3.0486 67.752 3.7915c9.735 1.4574 19.21 4.1439 28.394 6.3687 29.228 6.5102 47.861 7.5396 71.3-7.0257 19.869-9.8736 37.974-29.983 60.118-42.539 20.988-12.412 40.069-18.701 61.264-10.554 29.813 11.974 46.624 59.527 73.496 77.511 9.9004 6.24 21.369 9.3163 34.542 7.6542 60.634-7.8902 111.22-112.91 111.22-112.91m-508.08 76.8s36.971-1.6386 67.957 5.5587c9.7425 1.5516 19.233 4.2546 28.432 6.4167 29.331 6.3163 47.767 6.3922 71.016-8.6537 19.659-10.191 37.633-30.343 59.793-42.708 20.962-12.216 39.95-18.129 60.989-9.8045 29.617 12.245 46.437 59.559 73.347 77.337 9.9464 6.18 21.48 9.2044 34.705 7.5484 60.687-7.8418 111.85-111.47 111.85-111.47m-508.08 74.87s36.987-0.22861 68.163 7.3259c9.7501 1.6459 19.257 4.3653 28.47 6.4648 29.434 6.1224 47.673 5.2449 70.732-10.282 19.449-10.508 37.292-30.702 59.467-42.877 20.936-12.021 39.831-17.556 60.714-9.0548 29.421 12.516 46.25 59.591 73.197 77.164 9.9924 6.1202 21.592 9.0926 34.868 7.4425 60.74-7.7933 112.47-110.03 112.47-110.03m-508.09 72.939s37.002 1.1814 68.368 9.093c9.7577 1.7401 19.281 4.4761 28.508 6.5128 29.537 5.9286 47.58 4.0975 70.448-11.91 19.239-10.825 36.952-31.062 59.142-43.047 20.91-11.826 39.713-16.984 60.439-8.305 29.226 12.787 46.064 59.624 73.047 76.99 10.038 6.0602 21.703 8.9807 35.032 7.3367 60.793-7.7448 113.1-108.58 113.1-108.58m-508.09 71.008s37.018 2.5913 68.574 10.86c9.7653 1.8344 19.304 4.5868 28.546 6.5609 29.64 5.7347 47.486 2.9502 70.164-13.538 19.029-11.142 36.611-31.421 58.816-43.216 20.883-11.63 39.594-16.412 60.164-7.5553 29.03 13.058 45.877 59.656 72.898 76.817 10.084 6.0003 21.814 8.8689 35.195 7.2309 60.845-7.6964 113.73-107.14 113.73-107.14m-508.09 69.077s37.033 4.0013 68.779 12.627c9.7728 1.9286 19.328 4.6975 28.584 6.609 29.743 5.5408 47.392 1.8028 69.879-15.166 18.819-11.46 36.27-31.781 58.491-43.385 20.857-11.435 39.475-15.839 59.889-6.8056 28.834 13.329 45.69 59.689 72.748 76.643 10.13 5.9404 21.925 8.757 35.358 7.1251 60.898-7.6479 114.36-105.7 114.36-105.7m-508.09 67.147s37.049 5.4113 68.985 14.395c9.7804 2.0229 19.351 4.8082 28.622 6.657 29.846 5.347 47.298 0.65547 69.595-16.794 18.609-11.777 35.93-32.14 58.166-43.554 20.831-11.239 39.357-15.267 59.614-6.0559 28.638 13.6 45.504 59.721 72.598 76.47 10.176 5.8805 22.036 8.6452 35.521 7.0192 60.951-7.5995 114.99-104.26 114.99-104.26m-508.09 65.216s37.064 6.8212 69.19 16.162c9.788 2.1172 19.375 4.919 28.66 6.7051 29.949 5.1531 47.204-0.49189 69.311-18.422 18.399-12.094 35.589-32.5 57.84-43.723 20.805-11.044 39.238-14.695 59.339-5.3062 28.443 13.871 45.317 59.754 72.448 76.296 10.222 5.8206 22.147 8.5333 35.685 6.9134 61.004-7.551 115.62-102.81 115.62-102.81m-508.09 63.285s37.08 8.2312 69.396 17.929c9.7956 2.2114 19.399 5.0297 28.698 6.7532 30.052 4.9592 47.11-1.6392 69.027-20.05 18.189-12.411 35.248-32.859 57.515-43.893 20.779-10.849 39.119-14.123 59.064-4.5565 28.247 14.142 45.13 59.786 72.299 76.122 10.268 5.7607 22.259 8.4215 35.848 6.8076 61.057-7.5026 116.25-101.37 116.25-101.37m-508.09 61.354s37.095 9.6412 69.601 19.696c9.8031 2.3057 19.422 5.1404 28.736 6.8012 30.155 4.7654 47.017-2.7866 68.743-21.678 17.979-12.729 34.908-33.219 57.189-44.062 20.753-10.653 39.001-13.55 58.789-3.8068 28.051 14.413 44.944 59.819 72.149 75.949 10.314 5.7008 22.37 8.3096 36.011 6.7018 61.109-7.4541 116.87-99.929 116.87-99.929m-508.09 59.424s37.111 11.051 69.807 21.463c9.8107 2.3999 19.446 5.2512 28.774 6.8493 30.258 4.5715 46.923-3.934 68.459-23.306 17.769-13.046 34.567-33.578 56.864-44.231 20.727-10.458 38.882-12.978 58.514-3.0571 27.856 14.684 44.757 59.851 71.999 75.775 10.36 5.6409 22.481 8.1978 36.175 6.596 61.162-7.4056 117.5-98.486 117.5-98.486m-508.09 57.493s37.126 12.461 70.012 23.23c9.8183 2.4942 19.469 5.3619 28.812 6.8974 30.361 4.3776 46.829-5.0813 68.175-24.934 17.559-13.363 34.226-33.938 56.538-44.4 20.701-10.262 38.763-12.406 58.239-2.3073 27.66 14.955 44.57 59.883 71.85 75.602 10.406 5.581 22.592 8.0859 36.338 6.4901 61.215-7.3572 118.13-97.044 118.13-97.044m-508.09 55.562s37.141 13.871 70.217 24.998c9.8259 2.5884 19.493 5.4726 28.849 6.9454 30.464 4.1838 46.735-6.2287 67.891-26.562 17.349-13.68 33.886-34.297 56.213-44.57 20.675-10.067 38.645-11.833 57.964-1.5576 27.464 15.225 44.384 59.916 71.7 75.428 10.452 5.5211 22.703 7.9741 36.501 6.3843 61.268-7.3087 118.76-95.601 118.76-95.601m-508.1 53.631s37.157 15.281 70.423 26.765c9.8335 2.6827 19.517 5.5834 28.887 6.9935 30.568 3.9899 46.641-7.376 67.607-28.19 17.139-13.998 33.545-34.657 55.887-44.739 20.649-9.8714 38.526-11.261 57.689-0.80791 27.268 15.496 44.197 59.948 71.55 75.255 10.498 5.4612 22.814 7.8622 36.665 6.2785 61.321-7.2603 119.39-94.159 119.39-94.159m-508.1 51.701s37.172 16.691 70.628 28.532c9.841 2.7769 19.54 5.6941 28.925 7.0415 30.671 3.796 46.547-8.5234 67.323-29.818 16.929-14.315 33.204-35.016 55.562-44.908 20.623-9.676 38.407-10.689 57.414-0.0582 27.073 15.767 44.01 59.981 71.401 75.081 10.544 5.4013 22.926 7.7504 36.828 6.1727 61.373-7.2118 120.02-92.717 120.02-92.717m-508.1 49.77s37.188 18.101 70.834 30.299c9.8486 2.8712 19.564 5.8048 28.963 7.0896 30.774 3.6022 46.454-9.6707 67.038-31.446 16.719-14.632 32.864-35.376 55.236-45.077 20.597-9.4806 38.289-10.117 57.139 0.69151 26.877 16.038 43.824 60.013 71.251 74.908 10.59 5.3414 23.037 7.6385 36.991 6.0668 61.426-7.1634 120.64-91.274 120.64-91.274m-508.1 47.839s37.203 19.511 71.039 32.066c9.8562 2.9654 19.588 5.9156 29.001 7.1377 30.877 3.4083 46.36-10.818 66.754-33.074 16.509-14.949 32.523-35.735 54.911-45.246 20.571-9.2852 38.17-9.5443 56.864 1.4412 26.681 16.309 43.637 60.046 71.101 74.734 10.636 5.2815 23.148 7.5267 37.155 5.961 61.479-7.1149 121.27-89.832 121.27-89.832m-508.1 45.908s37.219 20.921 71.245 33.834c9.8638 3.0597 19.611 6.0263 29.039 7.1857 30.98 3.2144 46.266-11.965 66.47-34.702 16.299-15.266 32.182-36.095 54.586-45.416 20.544-9.0898 38.051-8.972 56.588 2.1909 26.486 16.58 43.45 60.078 70.951 74.561 10.682 5.2216 23.259 7.4148 37.318 5.8552 61.532-7.0665 121.9-88.39 121.9-88.39m-508.1 43.978s37.234 22.331 71.45 35.601c9.8713 3.154 19.635 6.137 29.077 7.2338 31.083 3.0206 46.172-13.113 66.186-36.33 16.088-15.584 31.842-36.454 54.26-45.585 20.518-8.8944 37.933-8.3997 56.313 2.9406 26.29 16.851 43.264 60.111 70.802 74.387 10.728 5.1617 23.37 7.303 37.481 5.7494 61.584-7.018 122.53-86.947 122.53-86.947m-508.1 42.047s37.25 23.741 71.656 37.368c9.8789 3.2482 19.658 6.2478 29.115 7.2819 31.186 2.8267 46.078-14.26 65.902-37.958 15.878-15.901 31.501-36.814 53.935-45.754 20.492-8.6989 37.814-7.8274 56.038 3.6904 26.094 17.122 43.077 60.143 70.652 74.214 10.774 5.1018 23.482 7.1912 37.645 5.6436 61.637-6.9695 123.16-85.505 123.16-85.505m-508.1 40.116s37.265 25.151 71.861 39.135c9.8865 3.3425 19.682 6.3585 29.153 7.3299 31.289 2.6328 45.984-15.408 65.618-39.586 15.668-16.218 31.16-37.173 53.609-45.923 20.466-8.5035 37.695-7.2552 55.763 4.4401 25.899 17.393 42.89 60.176 70.502 74.04 10.82 5.0418 23.593 7.0793 37.808 5.5377 61.69-6.9211 123.79-84.062 123.79-84.062m-508.1 38.185s37.281 26.561 72.067 40.902c9.8941 3.4367 19.706 6.4692 29.191 7.378 31.392 2.439 45.891-16.555 65.334-41.214 15.458-16.535 30.819-37.533 53.284-46.093 20.44-8.3081 37.577-6.6829 55.488 5.1898 25.703 17.664 42.704 60.208 70.353 73.866 10.866 4.9819 23.704 6.9674 37.971 5.4319 61.743-6.8726 124.42-82.62 124.42-82.62m-508.1 36.255s37.296 27.971 72.272 42.669c9.9016 3.531 19.729 6.5799 29.229 7.426 31.495 2.2451 45.797-17.702 65.05-42.842 15.248-16.853 30.479-37.892 52.958-46.262 20.414-8.1127 37.458-6.1106 55.213 5.9395 25.507 17.935 42.517 60.24 70.203 73.693 10.912 4.922 23.815 6.8556 38.135 5.3261 61.796-6.8242 125.04-81.178 125.04-81.178m-508.1 34.324s37.312 29.381 72.477 44.437c9.9092 3.6252 19.753 6.6907 29.267 7.4741 31.598 2.0512 45.703-18.85 64.766-44.47 15.038-17.17 30.138-38.252 52.633-46.431 20.388-7.9173 37.339-5.5383 54.938 6.6892 25.311 18.206 42.331 60.273 70.053 73.519 10.958 4.8621 23.926 6.7438 38.298 5.2203 61.848-6.7757 125.67-79.735 125.67-79.735m-508.11 32.393s37.327 30.791 72.683 46.204c9.9168 3.7195 19.776 6.8014 29.305 7.5222 31.701 1.8574 45.609-19.997 64.482-46.098 14.828-17.487 29.797-38.611 52.307-46.6 20.362-7.7218 37.221-4.966 54.663 7.4389 25.116 18.477 42.144 60.305 69.903 73.346 11.004 4.8022 24.037 6.6319 38.461 5.1145 61.901-6.7273 126.3-78.293 126.3-78.293m-508.11 30.462s37.343 32.201 72.888 47.971c9.9244 3.8138 19.8 6.9121 29.343 7.5702 31.804 1.6635 45.515-21.144 64.197-47.726 14.618-17.804 29.457-38.971 51.982-46.769 20.336-7.5264 37.102-4.3937 54.388 8.1886 24.92 18.748 41.957 60.338 69.754 73.172 11.05 4.7423 24.149 6.52 38.625 5.0086 61.954-6.6788 126.93-76.851 126.93-76.851m-508.11 28.532s37.358 33.611 73.094 49.738c9.932 3.908 19.824 7.0229 29.381 7.6183 31.907 1.4696 45.421-22.292 63.913-49.354 14.408-18.121 29.116-39.33 51.656-46.939 20.31-7.331 36.983-3.8215 54.113 8.9383 24.724 19.019 41.771 60.37 69.604 72.999 11.096 4.6824 24.26 6.4082 38.788 4.9028 62.007-6.6303 127.56-75.408 127.56-75.408m-508.11 26.601s37.373 35.021 73.299 51.505c9.9395 4.0022 19.847 7.1336 29.419 7.6664 32.01 1.2758 45.328-23.439 63.629-50.982 14.198-18.439 28.775-39.69 51.331-47.108 20.284-7.1356 36.865-3.2492 53.838 9.6881 24.529 19.29 41.584 60.403 69.454 72.825 11.142 4.6225 24.371 6.2964 38.951 4.797 62.06-6.5819 128.19-73.966 128.19-73.966m-508.11 24.67s37.389 36.431 73.505 53.272c9.9471 4.0965 19.871 7.2443 29.457 7.7144 32.113 1.0819 45.234-24.586 63.345-52.61 13.988-18.756 28.435-40.049 51.006-47.277 20.258-6.9402 36.746-2.6769 53.563 10.438 24.333 19.561 41.397 60.435 69.305 72.652 11.188 4.5626 24.482 6.1845 39.114 4.6912 62.112-6.5334 128.81-72.523 128.81-72.523m-508.11 22.739s37.404 37.841 73.71 55.04c9.9547 4.1908 19.895 7.3551 29.495 7.7625 32.216 0.88802 45.14-25.734 63.061-54.238 13.778-19.073 28.094-40.409 50.68-47.446 20.232-6.7447 36.627-2.1046 53.288 11.187 24.137 19.832 41.211 60.468 69.155 72.478 11.234 4.5027 24.593 6.0727 39.278 4.5854 62.165-6.485 129.44-71.081 129.44-71.081m-508.11 20.809s37.42 39.251 73.916 56.807c9.9623 4.285 19.918 7.4658 29.533 7.8106 32.319 0.69415 45.046-26.881 62.777-55.866 13.568-19.39 27.753-40.768 50.355-47.616 20.205-6.5493 36.509-1.5323 53.013 11.937 23.942 20.103 41.024 60.5 69.005 72.305 11.28 4.4428 24.704 5.9608 39.441 4.4795 62.218-6.4365 130.07-69.639 130.07-69.639m-508.11 18.878s37.435 40.661 74.121 58.574c9.9698 4.3793 19.942 7.5765 29.571 7.8586 32.422 0.50028 44.952-28.028 62.493-57.494 13.358-19.708 27.413-41.128 50.029-47.785 20.179-6.3539 36.39-0.96004 52.738 12.687 23.746 20.374 40.837 60.532 68.856 72.131 11.326 4.3829 24.816 5.849 39.604 4.3737 62.271-6.3881 130.7-68.196 130.7-68.196m-508.11 16.947s37.451 42.07 74.326 60.341c9.9774 4.4735 19.965 7.6873 29.609 7.9067 32.525 0.30642 44.858-29.176 62.209-59.122 13.148-20.025 27.072-41.487 49.704-47.954 20.153-6.1585 36.271-0.38776 52.463 13.437 23.55 20.645 40.651 60.565 68.706 71.958 11.372 4.323 24.927 5.7371 39.768 4.2679 62.324-6.3396 131.33-66.754 131.33-66.754m-508.11 15.016s37.466 43.48 74.532 62.108c9.985 4.5678 19.989 7.798 29.647 7.9548 32.628 0.11255 44.765-30.323 61.925-60.75 12.938-20.342 26.731-41.847 49.378-48.123 20.127-5.9631 36.153 0.18453 52.188 14.186 23.354 20.916 40.464 60.597 68.556 71.784 11.418 4.2631 25.038 5.6253 39.931 4.1621 62.376-6.2911 131.96-65.312 131.96-65.312m-508.12 13.086s37.482 44.89 74.737 63.875c9.9926 4.662 20.013 7.9087 29.685 8.0028 32.731-0.0813 44.671-31.47 61.641-62.378 12.728-20.659 26.391-42.206 49.053-48.292 20.101-5.7677 36.034 0.7568 51.913 14.936 23.159 21.187 40.277 60.63 68.406 71.611 11.464 4.2032 25.149 5.5134 40.094 4.0562 62.429-6.2427 132.59-63.869 132.59-63.869m-508.12 11.155s37.497 46.3 74.943 65.643c10 4.7563 20.036 8.0194 29.723 8.0509 32.834-0.27518 44.577-32.618 61.356-64.006 12.518-20.977 26.05-42.566 48.727-48.462 20.075-5.5722 35.915 1.3291 51.638 15.686 22.963 21.458 40.091 60.662 68.257 71.437 11.51 4.1433 25.26 5.4016 40.258 3.9504 62.482-6.1942 133.21-62.427 133.21-62.427m-508.12 9.2242s37.513 47.71 75.148 67.41c10.008 4.8506 20.06 8.1302 29.761 8.099 32.937-0.46906 44.483-33.765 61.072-65.634 12.308-21.294 25.709-42.925 48.402-48.631 20.049-5.3768 35.797 1.9014 51.363 16.435 22.767 21.729 39.904 60.695 68.107 71.263 11.556 4.0834 25.371 5.2897 40.421 3.8446 62.535-6.1458 133.84-60.984 133.84-60.984m-508.12 7.2934s37.528 49.12 75.354 69.177c10.015 4.9448 20.083 8.2409 29.799 8.147 33.04-0.66292 44.389-34.913 60.788-67.262 12.098-21.611 25.368-43.285 48.076-48.8 20.023-5.1814 35.678 2.4737 51.088 17.185 22.572 22 39.717 60.727 67.957 71.09 11.602 4.0235 25.483 5.1779 40.584 3.7388 62.588-6.0973 134.47-59.542 134.47-59.542m-508.12 5.3627s37.544 50.53 75.559 70.944c10.023 5.0391 20.107 8.3516 29.837 8.1951 33.143-0.85679 44.295-36.06 60.504-68.89 11.888-21.928 25.028-43.644 47.751-48.969 19.997-4.986 35.559 3.0459 50.813 17.935 22.376 22.271 39.531 60.76 67.808 70.916 11.648 3.9636 25.594 5.066 40.748 3.633 62.64-6.0489 135.1-58.1 135.1-58.1m-508.12 3.4319s37.559 51.94 75.765 72.711c10.03 5.1333 20.131 8.4624 29.875 8.2431 33.246-1.0507 44.202-37.207 60.22-70.518 11.677-22.245 24.687-44.004 47.426-49.138 19.971-4.7906 35.441 3.6182 50.538 18.685 22.18 22.542 39.344 60.792 67.658 70.743 11.694 3.9036 25.705 4.9542 40.911 3.5271 62.693-6.0004 135.73-56.657 135.73-56.657m-508.12 1.5012s37.574 53.35 75.97 74.479c10.038 5.2276 20.154 8.5731 29.913 8.2912 33.349-1.2445 44.108-38.355 59.936-72.146 11.467-22.563 24.346-44.363 47.1-49.308 19.945-4.5951 35.322 4.1905 50.263 19.434 21.985 22.813 39.157 60.825 67.508 70.569 11.74 3.8438 25.816 4.8423 41.074 3.4213 62.746-5.9519 136.36-55.215 136.36-55.215m-508.12-0.42957s37.59 54.76 76.176 76.246c10.046 5.3218 20.178 8.6838 29.951 8.3393 33.452-1.4384 44.014-39.502 59.652-73.774 11.257-22.88 24.006-44.723 46.775-49.477 19.919-4.3997 35.203 4.7628 49.988 20.184 21.789 23.084 38.971 60.857 67.358 70.396 11.786 3.7838 25.927 4.7305 41.238 3.3155 62.799-5.9035 136.98-53.773 136.98-53.773m-508.12-2.3603s37.605 56.17 76.381 78.013c10.053 5.4161 20.202 8.7946 29.989 8.3873 33.555-1.6323 43.92-40.649 59.368-75.402 11.047-23.197 23.665-45.082 46.449-49.646 19.893-4.2043 35.085 5.3351 49.713 20.934 21.593 23.355 38.784 60.889 67.209 70.222 11.832 3.7239 26.039 4.6186 41.401 3.2097 62.851-5.855 137.61-52.33 137.61-52.33m-508.12-4.2911s37.621 57.58 76.586 79.78c10.061 5.5103 20.225 8.9053 30.027 8.4354 33.658-1.8261 43.826-41.797 59.084-77.03 10.837-23.514 23.324-45.442 46.124-49.815 19.866-4.0089 34.966 5.9074 49.438 21.683 21.397 23.626 38.597 60.922 67.059 70.049 11.878 3.664 26.15 4.5068 41.564 3.1038 62.904-5.8066 138.24-50.888 138.24-50.888m-508.12-6.2218s37.636 58.99 76.792 81.547c10.068 5.6046 20.249 9.016 30.065 8.4834 33.761-2.02 43.732-42.944 58.8-78.658 10.627-23.832 22.984-45.801 45.798-49.985 19.84-3.8135 34.847 6.4796 49.163 22.433 21.202 23.897 38.411 60.954 66.909 69.875 11.924 3.6041 26.261 4.3949 41.728 2.998 62.957-5.7581 138.87-49.445 138.87-49.445m-508.13-8.1526s37.652 60.4 76.997 83.314c10.076 5.6989 20.272 9.1268 30.103 8.5315 33.864-2.2139 43.639-44.091 58.515-80.286 10.417-24.149 22.643-46.161 45.473-50.154 19.814-3.618 34.729 7.0519 48.888 23.183 21.006 24.167 38.224 60.987 66.76 69.702 11.97 3.5442 26.372 4.2831 41.891 2.8922 63.01-5.7097 139.5-48.003 139.5-48.003m-508.13-10.083s37.667 61.81 77.203 85.082c10.083 5.7931 20.296 9.2375 30.141 8.5796 33.967-2.4077 43.545-45.239 58.231-81.914 10.207-24.466 22.302-46.52 45.147-50.323 19.788-3.4226 34.61 7.6242 48.613 23.933 20.81 24.438 38.037 61.019 66.61 69.528 12.016 3.4843 26.483 4.1712 42.054 2.7864 63.063-5.6612 140.13-46.561 140.13-46.561m-508.13-12.014s37.683 63.22 77.408 86.849c10.091 5.8874 20.32 9.3482 30.179 8.6276 34.07-2.6016 43.451-46.386 57.947-83.542 9.9971-24.783 21.962-46.88 44.822-50.492 19.762-3.2272 34.491 8.1965 48.338 24.682 20.615 24.709 37.851 61.052 66.46 69.355 12.062 3.4244 26.594 4.0594 42.217 2.6806 63.115-5.6127 140.76-45.118 140.76-45.118m-508.13-13.945s37.698 64.63 77.614 88.616c10.099 5.9816 20.343 9.459 30.217 8.6757 34.173-2.7955 43.357-47.533 57.663-85.17 9.787-25.1 21.621-47.239 44.497-50.661 19.736-3.0318 34.373 8.7688 48.063 25.432 20.419 24.98 37.664 61.084 66.311 69.181 12.108 3.3645 26.706 3.9475 42.381 2.5747 63.168-5.5643 141.38-43.676 141.38-43.676m-508.13-15.876s37.714 66.04 77.819 90.383c10.106 6.0759 20.367 9.5697 30.255 8.7238 34.276-2.9893 43.263-48.681 57.379-86.798 9.577-25.418 21.28-47.599 44.171-50.831 19.71-2.8364 34.254 9.3411 47.788 26.182 20.223 25.251 37.477 61.117 66.161 69.007 12.154 3.3046 26.817 3.8357 42.544 2.4689 63.221-5.5158 142.01-42.234 142.01-42.234m-508.13-17.806s37.729 67.45 78.025 92.15c10.114 6.1701 20.39 9.6804 30.293 8.7718 34.379-3.1832 43.169-49.828 57.095-88.426 9.3669-25.735 20.94-47.958 43.846-51 19.684-2.641 34.135 9.9133 47.513 26.931 20.028 25.522 37.291 61.149 66.011 68.834 12.2 3.2447 26.928 3.7238 42.707 2.3631 63.274-5.4674 142.64-40.791 142.64-40.791m-508.13-19.737s37.745 68.86 78.23 93.917c10.121 6.2644 20.414 9.7911 30.331 8.8199 34.482-3.3771 43.076-50.976 56.811-90.054 9.1569-26.052 20.599-48.318 43.52-51.169 19.658-2.4455 34.017 10.486 47.238 27.681 19.832 25.793 37.104 61.181 65.861 68.66 12.246 3.1848 27.039 3.612 42.871 2.2573 63.327-5.4189 143.27-39.349 143.27-39.349" stroke="#5f9"/> </g> </g> </svg>